<svg xmlns="http://www.w3.org/2000/svg" width="202" height="256" viewBox="0 0 202 256">
  <g fill="#2BA977">
    <path d="M90.137333,0 L131.975271,0 L131.975271,191.757438 C110.54477,195.811169 94.768044,197.405991 77.6990272,197.405991 C26.5996672,197.352652 0,174.523752 0,130.679459 C0,88.4353233 28.2150315,61.0193066 71.9375607,61.0193066 C78.7220912,61.0193066 83.8912573,61.5526919 90.137333,63.1528486 L90.137333,0 Z M91.6035871,97.7092696 C86.7036482,96.1091125 82.6652372,95.5757263 77.4960715,95.5757263 C56.3347976,95.5757263 44.1118738,108.483657 44.1118738,131.104539 C44.1118738,153.128027 55.796343,165.289218 77.2268435,165.289218 C81.8575548,165.289218 85.6267379,165.027859 91.6035871,164.22778 L91.6035871,97.7092696 Z"/>
    <path d="M200.392166,66.1678107 L200.392166,162.177209 C200.392166,195.24178 197.915273,211.142003 190.646134,224.850011 C183.861604,238.029968 174.923255,246.340116 156.454255,255.51968 L117.631663,237.224556 C136.100663,228.642383 145.039013,221.05764 150.746634,209.483174 C156.723482,197.647348 158.608074,183.93934 158.608074,147.882477 L158.608074,66.1678107 L200.392166,66.1678107 L200.392166,66.1678107 Z"/>
    <polygon points="154.392 0 196.229 0 196.229 42.511 154.392 42.511"/>
  </g>
</svg>
