<svg xmlns="http://www.w3.org/2000/svg" width="221" height="256" viewBox="0 0 221 256">
  <g fill="none">
    <path fill="#4E4E4E" d="M11.4697035 39.3302839C11.4697035 47.1509333 10.8440596 49.6982337 9.2352251 51.5751655 7.44467576 53.1875137 5.12012047 54.0791467 2.71058824 54.0777914L3.3362422 58.546698C7.07182431 58.5971953 10.6965333 57.2776408 13.5254337 54.837509 15.0475294 52.9813082 16.1802039 50.8376345 16.8558431 48.5342369 17.5315325 46.2308392 17.7363325 43.8149522 17.4580957 41.4306886L17.4580957 11.8462745 11.4697035 11.8462745 11.4697035 39.1515357 11.4697035 39.3302839zM56.1294557 35.8053145C56.1294557 39.1570071 56.1294557 42.1512031 56.3975529 44.743178L51.0795294 44.743178 50.7220329 39.4251545C49.6096878 41.3068047 48.0189239 42.8603231 46.1115231 43.9278431 44.2040722 44.9953631 42.048 45.5388361 39.8624627 45.5028957 34.6785129 45.5028957 28.5113725 42.687498 28.5113725 31.2022839L28.5113725 12.1199179 34.4997647 12.1199179 34.4997647 29.9956706C34.4997647 36.2075357 36.4214212 40.3636204 41.8288439 40.3636204 42.9413396 40.3756173 44.0450008 40.1652957 45.0751749 39.7450541 46.105349 39.3248125 47.0412047 38.7031341 47.8279278 37.916411 48.6146008 37.129738 49.2363294 36.1938322 49.656571 35.1637082 50.0767624 34.1335341 50.2870839 33.0298227 50.2751373 31.9173271L50.2751373 11.8964706 56.2634792 11.8964706 56.2634792 35.6265663 56.1294557 35.8053145zM67.4806854 22.7520753C67.4806854 18.5959404 67.4806854 15.1995533 67.212549 12.1159831L72.5752973 12.1159831 72.8433945 17.702149C74.0382118 15.6839404 75.7582808 14.027766 77.8202353 12.9102005 79.88224 11.7926375 82.2088282 11.2555741 84.5520314 11.3562652 92.5067545 11.3562652 98.4951467 18.014971 98.4951467 27.9360251 98.4951467 39.644662 91.3001412 45.4543059 83.5241663 45.4543059 81.533942 45.5431027 79.5544596 45.1167373 77.7772675 44.2164204 76.0000753 43.3160533 74.4853584 41.9722541 73.3796894 40.3150306L73.3796894 40.3150306 73.3796894 58.1907576 67.4806854 58.1907576 67.4806854 22.886149 67.4806854 22.7520753zM73.3796894 31.4665161C73.3959027 32.2773835 73.4856533 33.0850886 73.6478369 33.8797427 74.1548675 35.8640439 75.3091263 37.6226133 76.9278996 38.8771639 78.5467231 40.1317647 80.5376502 40.8107169 82.5857004 40.8066378 88.8869145 40.8066378 92.5961537 35.6673255 92.5961537 28.2041725 92.5961537 21.6795357 89.1103875 16.0933446 82.8091733 16.0933446 80.3155325 16.2975473 77.9820173 17.4042855 76.2460863 19.2060235 74.5101553 21.0077616 73.4910243 23.3808314 73.3796894 25.8803451L73.3796894 31.4665161zM109.164624 12.0862414L116.35963 31.3474008C117.119347 33.49248 117.92374 36.0844549 118.460035 38.0061114 119.085678 36.0397804 119.755997 33.5371545 120.560439 31.2133271L127.085076 12.0862414 133.38629 12.0862414 124.448427 35.3247373C119.97947 46.4970792 117.253421 52.2620486 113.141961 55.7478149 111.071122 57.6393035 108.546409 58.9632251 105.812917 59.5910776L104.338166 54.5858761C106.249467 53.9578729 108.023868 52.9721224 109.566845 51.6810792 111.747012 49.9043388 113.47717 47.6382871 114.616722 45.0670431 114.860624 44.6217537 115.026874 44.1381145 115.108292 43.6369569 115.057493 43.0976502 114.921763 42.5697882 114.706121 42.0728471L102.550588 11.9968627 109.075225 11.9968627 109.164624 12.0862414zM149.28379 2.71058824L149.28379 12.0953475 157.864157 12.0953475 157.864157 16.5643043 149.28379 16.5643043 149.28379 34.1719341C149.28379 38.1939953 150.445729 40.5178227 153.752747 40.5178227 154.927285 40.5370478 156.099213 40.4018196 157.238513 40.1156518L157.50666 44.5845584C155.798287 45.1764204 153.995595 45.4490855 152.188587 45.3890008 150.991912 45.4638933 149.79318 45.2790212 148.67466 44.8470337 147.556141 44.4150463 146.544339 43.7461835 145.708624 42.8863749 143.888314 40.4516643 143.05795 37.4177129 143.384797 34.3954071L143.384797 16.5196298 138.290196 16.5196298 138.290196 12.0506729 143.474146 12.0506729 143.474146 4.09595984 149.28379 2.71058824zM168.895548 29.4600282C168.774275 30.9756486 168.983492 32.4995012 169.508794 33.9263247 170.034096 35.3531482 170.862933 36.6488596 171.938083 37.7239592 173.013183 38.799109 174.308894 39.6279467 175.735718 40.1532486 177.162541 40.6785506 178.686394 40.8877678 180.202014 40.7664941 183.267539 40.835062 186.313085 40.2564016 189.139878 39.0682604L190.167743 43.5372173C186.698943 44.9660988 182.968973 45.6512251 179.218824 45.5482227 177.032584 45.6979075 174.839868 45.372938 172.791065 44.5955514 170.742212 43.8182149 168.88581 42.6068831 167.349062 41.044731 165.812344 39.4825286 164.631708 37.6064 163.888143 35.545098 163.144575 33.4837459 162.855674 31.286011 163.041254 29.1025318 163.041254 19.2708769 168.895548 11.494902 178.459106 11.494902 189.184552 11.494902 191.865926 20.8796612 191.865926 26.8680533 191.92325 27.7907576 191.92325 28.7161224 191.865926 29.6388267L168.761525 29.6388267 168.895548 29.4600282zM186.413829 24.9911216C186.586303 23.7963043 186.500668 22.5784471 186.162648 21.4195702 185.824678 20.2606933 185.242202 19.187702 184.454525 18.2729286 183.666798 17.3582055 182.692191 16.6229333 181.596311 16.1166758 180.50043 15.6104282 179.308725 15.3449713 178.101609 15.3381948 175.646168 15.5159291 173.345682 16.6042604 171.650962 18.3899357 169.956242 20.1755608 168.989515 22.5297569 168.940273 24.9911216L186.413829 24.9911216zM200.952058 22.2483075C200.952058 18.4050447 200.952058 15.0980066 200.683922 12.059126L206.04667 12.059126 206.04667 18.4497192 206.314767 18.4497192C206.877666 16.4773145 208.040659 14.7291056 209.642315 13.4477754 211.243972 12.1664402 213.204831 11.4155721 215.252681 11.2994073 215.816333 11.2254264 216.387213 11.2254264 216.950864 11.2994073L216.950864 16.8856094C216.267896 16.8065004 215.578102 16.8065004 214.895134 16.8856094 212.86651 16.9641663 210.935818 17.7785475 209.463718 19.1766588 207.991617 20.57472 207.078802 22.4608376 206.895736 24.4827859 206.728634 25.3972078 206.638933 26.3240784 206.627639 27.253509L206.627639 44.6377161 200.728611 44.6377161 200.728611 22.292982 200.952058 22.2483075z" transform="translate(0 95.373)"/>
    <g transform="translate(5.02)">
      <path fill="#767677" d="M193.30806,17.6973804 C193.491576,20.699658 192.777286,23.6885835 191.256094,26.2834196 C189.734902,28.8783059 187.475777,30.9615937 184.766394,32.2679969 C182.05701,33.5743498 179.020097,34.0446369 176.042516,33.6189741 C173.064935,33.1932612 170.281462,31.8908737 168.046672,29.8776596 C165.811888,27.8644957 164.226962,25.231611 163.493801,22.3144659 C162.76064,19.3973208 162.912431,16.327931 163.929836,13.4973741 C164.94724,10.6668173 166.784206,8.20314855 169.206714,6.42026416 C171.629227,4.63737976 174.527649,3.61596787 177.532687,3.4861449 C179.502933,3.37772825 181.475187,3.65986836 183.335956,4.31634071 C185.196775,4.97281004 186.909465,5.99066604 188.375542,7.31136502 C189.841569,8.63206902 191.032119,10.2295592 191.878626,12.0119718 C192.725133,13.7943843 193.21093,15.726582 193.30806,17.6973804 L193.30806,17.6973804 Z"/>
      <path fill="#F37726" d="M104.940925 192.714692C64.7208157 192.714692 29.3712816 178.280006 11.0933333 156.963137 18.1852361 176.140097 30.9817725 192.684173 47.7605145 204.368515 64.5391059 216.052957 84.4950588 222.316424 104.940925 222.316424 125.387294 222.316424 145.342745 216.052957 162.121788 204.368515 178.900329 192.684173 191.696816 176.140097 198.78902 156.963137 180.555796 178.280006 145.340235 192.714692 104.940925 192.714692zM104.940925 54.0975686C145.161537 54.0975686 180.511122 68.5322541 198.78902 89.8489725 191.696816 70.6721631 178.900329 54.1280878 162.121788 42.4437459 145.342745 30.7594039 125.387294 24.4956863 104.940925 24.4956863 84.4950588 24.4956863 64.5391059 30.7594039 47.7605145 42.4437459 30.9817725 54.1280878 18.1852361 70.6721631 11.0933333 89.8489725 29.3712816 68.4875796 64.5421176 54.0975686 104.940925 54.0975686z"/>
      <path fill="#9E9E9E" d="M49.5724424,234.197635 C49.8083639,237.979206 48.9131671,241.745418 47.0009475,245.016395 C45.0886776,248.287373 42.2459733,250.915037 38.8349992,252.564631 C35.4240251,254.214224 31.5991843,254.811056 27.8478306,254.279078 C24.0964267,253.747049 20.5883231,252.110356 17.7704659,249.577462 C14.9526036,247.044568 12.952566,243.730121 12.0251583,240.056471 C11.0977551,236.38277 11.2849724,232.516216 12.5629591,228.949283 C13.8409462,225.3824 16.1518431,222.276718 19.2012047,220.027909 C22.2506165,217.77909 25.9004235,216.488957 29.6856596,216.321887 C32.1652957,216.189254 34.646789,216.546471 36.9883859,217.373129 C39.3299325,218.199793 41.4857035,219.479693 43.3324675,221.139722 C45.1792314,222.799762 46.6808973,224.807354 47.7515294,227.047906 C48.8222118,229.288408 49.4409788,231.717948 49.5724424,234.197635 L49.5724424,234.197635 Z"/>
      <path fill="#616262" d="M15.6642384,49.2394918 C13.4970227,49.2993255 11.3604769,48.717051 9.52330039,47.5659043 C7.686144,46.4147075 6.23036737,44.745989 5.33906071,42.769669 C4.44775504,40.7932988 4.16071379,38.5975216 4.51403495,36.4584659 C4.86735611,34.3194102 5.84526306,32.332549 7.32477741,30.7478187 C8.80429678,29.1630682 10.7193725,28.0511548 12.8291639,27.5519132 C14.9389051,27.052672 17.149189,27.1883937 19.18208,27.9420085 C21.2149208,28.6956273 22.9795639,30.0334883 24.2540424,31.7873493 C25.528571,33.5412204 26.2560627,35.6327906 26.3450102,37.7990024 C26.429691,40.7280941 25.3555953,43.5724047 23.3558839,45.7143216 C21.3561725,47.8562886 18.5922259,49.1230369 15.6642384,49.2394918 Z"/>
    </g>
  </g>
</svg>
