<svg xmlns="http://www.w3.org/2000/svg" xmlns:xlink="http://www.w3.org/1999/xlink" width="256" height="110" viewBox="0 0 256 110">
  <defs>
    <linearGradient id="less-a" x1="50%" x2="50%" y1="0%" y2="100%">
      <stop offset="0%" stop-color="#2E4F82"/>
      <stop offset="100%" stop-color="#182E4D"/>
    </linearGradient>
    <polyline id="less-b" points=".06 .496 256 .496 256 110 .06 110"/>
    <polyline id="less-d" points=".06 .496 256 .496 256 110 .06 110"/>
    <polyline id="less-f" points=".06 .496 256 .496 256 110 .06 110"/>
    <polyline id="less-h" points=".06 .496 256 .496 256 110 .06 110"/>
    <polyline id="less-j" points=".06 .496 256 .496 256 110 .06 110"/>
  </defs>
  <g fill="none" fill-rule="evenodd">
    <path fill="url(#less-a)" fill-rule="nonzero" d="M224.236,88.738 C224.236,100.302 214.548,109.763 202.707,109.763 L21.75,109.763 C9.909,109.763 0.221,100.302 0.221,88.738 L0.221,21.781 C0.221,10.218 9.909,0.756 21.75,0.756 L202.707,0.756 C214.548,0.756 224.236,10.218 224.236,21.781 L224.236,88.738" transform="translate(16)"/>
    <polyline points=".06 .496 256 .496 256 110 .06 110"/>
    <mask id="less-c" fill="#fff">
      <use xlink:href="#less-b"/>
    </mask>
    <path fill="#FAF9F8" fill-rule="nonzero" d="M245.071,40.43 C245.071,32.233 246.332,27.399 246.332,18.572 C246.332,4.91 241.287,0.496 230.148,0.496 L221.951,0.496 L221.951,10.164 L224.473,10.164 C230.148,10.164 231.409,12.056 231.409,18.992 C231.409,25.507 230.778,32.023 230.778,39.59 C230.778,49.258 233.931,53.041 240.236,54.512 L240.236,55.143 C233.931,56.614 230.778,60.398 230.778,70.066 C230.778,77.632 231.409,83.728 231.409,90.664 C231.409,97.81 229.938,99.701 224.473,99.701 L224.473,99.911 L221.951,99.911 L221.951,110 L230.148,110 C241.287,110 246.332,105.586 246.332,91.925 C246.332,82.887 245.071,78.263 245.071,70.066 C245.071,65.652 247.803,61.028 256,60.608 L256,49.678 C247.803,49.468 245.071,44.844 245.071,40.43" mask="url(#less-c)"/>
    <mask id="less-e" fill="#fff">
      <use xlink:href="#less-d"/>
    </mask>
    <path fill="#FAF9F8" fill-rule="nonzero" d="M151.961,53.251 C145.445,50.729 139.56,49.258 139.56,45.054 C139.56,41.902 142.082,40.01 146.706,40.01 C151.33,40.01 155.534,41.902 160.158,45.265 L168.565,34.125 C163.31,30.132 156.164,25.928 146.496,25.928 C132.204,25.928 122.535,34.125 122.535,45.685 C122.535,55.984 131.573,61.238 139.14,64.181 C145.655,66.703 151.961,68.805 151.961,73.008 C151.961,76.161 149.438,78.263 143.764,78.263 C138.509,78.263 133.255,76.161 127.58,71.747 L119.383,83.938 C125.688,89.192 135.356,92.765 143.343,92.765 C160.158,92.765 169.195,83.938 169.195,72.378 C169.195,60.818 160.158,55.984 151.961,53.251" mask="url(#less-e)"/>
    <mask id="less-g" fill="#fff">
      <use xlink:href="#less-f"/>
    </mask>
    <path fill="#FAF9F8" fill-rule="nonzero" d="M202.824,53.251 C196.519,50.729 190.634,49.258 190.634,45.054 C190.634,41.902 193.156,40.01 197.78,40.01 C202.404,40.01 206.608,41.902 211.232,45.265 L219.639,34.125 C214.384,30.132 207.238,25.928 197.57,25.928 C183.277,25.928 173.609,34.125 173.609,45.685 C173.609,55.984 182.647,61.238 190.213,64.181 C196.729,66.703 203.034,68.805 203.034,73.008 C203.034,76.161 200.512,78.263 194.837,78.263 C189.583,78.263 184.328,76.161 178.654,71.747 L170.246,83.938 C176.552,89.192 186.22,92.765 194.207,92.765 C211.021,92.765 220.059,83.938 220.059,72.378 C220.059,60.818 211.021,55.984 202.824,53.251" mask="url(#less-g)"/>
    <mask id="less-i" fill="#fff">
      <use xlink:href="#less-h"/>
    </mask>
    <path fill="#FAF9F8" fill-rule="nonzero" d="M77.977,52.2 C79.238,43.793 84.282,39.8 90.167,39.8 C97.734,39.8 100.677,45.054 100.677,52.2 L77.977,52.2 L77.977,52.2 Z M116.65,55.984 C116.86,38.959 107.612,25.718 89.957,25.718 C74.614,25.718 59.902,38.539 60.322,58.716 C60.322,79.524 73.984,91.714 92.059,91.714 C99.626,91.714 108.033,88.982 114.548,84.568 L108.243,73.429 C103.619,76.161 99.205,77.422 94.581,77.422 C86.174,77.422 79.658,73.429 77.977,63.76 L116.02,63.76 C116.23,62.289 116.65,59.347 116.65,55.984 L116.65,55.984 Z" mask="url(#less-i)"/>
    <mask id="less-k" fill="#fff">
      <use xlink:href="#less-j"/>
    </mask>
    <path fill="#FAF9F8" fill-rule="nonzero" d="M59.271,77.002 C57.8,77.002 55.908,75.741 55.908,71.747 L55.908,0.496 L26.062,0.496 C14.713,0.496 9.668,4.91 9.668,18.572 C9.668,27.609 10.929,32.654 10.929,40.43 C10.929,44.844 8.197,49.468 0,49.888 L0,60.818 C8.197,61.028 10.929,65.652 10.929,70.066 C10.929,77.843 9.668,82.466 9.668,91.504 C9.668,105.166 14.713,109.58 25.852,109.58 L34.049,109.58 L34.049,99.911 L31.527,99.911 C26.273,99.911 24.591,97.81 24.591,90.874 C24.591,83.938 25.222,78.053 25.222,70.276 C25.222,60.608 22.069,56.824 15.763,55.353 L15.763,54.723 C22.069,53.251 25.222,49.468 25.222,39.8 C25.222,32.233 24.591,26.138 24.591,19.202 C24.591,12.266 26.062,10.375 31.527,10.375 L37.202,10.375 L37.202,70.696 C37.202,83.517 41.616,91.925 54.437,91.925 C58.43,91.925 61.583,91.294 63.895,90.453 L61.793,76.792 C60.532,77.002 59.902,77.002 59.271,77.002" mask="url(#less-k)"/>
  </g>
</svg>
