<svg xmlns="http://www.w3.org/2000/svg" width="256" height="158" viewBox="0 0 256 158">
  <path d="M39.4543938,122.301971 C46.0944473,114.359947 46.87563,106.157528 41.7328435,90.924464 C38.4779154,81.2898765 33.0747346,73.8686405 37.045747,67.8795725 C41.2771536,61.499913 50.2607555,67.684277 42.7744206,76.2121885 L44.2716875,77.2537655 C53.2552895,78.2953425 57.6819915,65.991714 50.9768395,62.4763915 C33.2700302,53.2323955 17.7765721,71.0043035 24.6119213,91.5754495 C27.5413567,100.298657 31.6425662,109.542653 28.3225394,116.898791 C25.4582026,123.213352 19.9248247,126.923969 16.2142066,127.054167 C8.4674775,127.444758 13.6102641,109.67285 22.5287673,105.246148 C23.30995,104.855557 24.4166256,104.334768 23.3750486,103.032797 C12.3733914,101.795924 5.92863355,106.873612 2.21801541,113.969356 C-8.58834615,134.6056 22.724063,142.222132 39.4543938,122.301971 Z M232.797128,61.6301105 C235.335972,67.8795725 239.176787,74.063936 236.898338,79.5322155 C235.010479,84.219312 232.536734,86.172269 229.802594,86.627959 C225.961779,87.2789445 227.003356,75.23571 233.578311,71.655289 C234.164198,71.3297965 235.010479,69.767431 234.229296,68.856051 C225.89668,68.400361 221.209584,72.3713735 218.67074,77.644357 C211.314602,93.0727165 235.335972,97.304123 247.118812,82.136158 C251.805909,76.0819915 252.001204,70.0929235 247.509403,59.2214635 C244.645067,52.321016 240.283463,47.1782292 243.017602,42.6213298 C245.947038,37.804036 252.977683,41.9703441 247.704699,48.4151019 L248.876473,49.0660876 C255.711822,49.4566789 258.51106,40.34288 253.303176,38.0644303 C239.567379,32.2055596 226.742962,46.9829335 232.797128,61.6301105 Z M145.825447,45.1601737 C141.073252,41.384457 127.728046,47.6990177 123.95233,57.073211 C119.200134,68.986248 112.169489,86.3675645 105.269042,93.9840965 C97.9780025,101.99122 97.2619185,95.8068565 97.9780025,91.184858 C99.670565,80.313398 110.281631,55.120254 116.075403,48.0245105 C113.92715,44.8346809 99.865861,45.2903709 90.1010765,60.458336 C86.4555565,66.18701 78.1229405,85.260889 68.8789445,100.298657 C66.860889,103.553585 64.322045,101.275135 66.275002,93.6586035 C68.488353,84.8702975 74.9982095,60.7187305 83.395924,41.7099499 C105.399239,37.3483461 128.769623,34.2887136 146.671728,34.223615 C149.080375,33.5726294 150.707839,31.4243768 146.671728,31.2941797 C131.243369,30.7733912 108.06828,32.596151 86.390458,35.3302906 C90.556766,26.9976745 95.048567,20.357621 99.6054665,17.5583828 C94.657976,14.4336517 84.632797,15.6705244 78.9041235,24.1333377 C76.3652795,27.9090544 73.8264355,32.4659538 71.4177885,37.4134447 C55.533739,39.8871901 41.9281392,42.6864283 35.0276914,45.2903709 C27.8668495,48.0245105 28.6480322,56.6826195 33.009636,55.0551555 C42.0583363,51.67003 54.2968665,48.1547077 67.902466,45.0299766 C59.244357,64.5595455 52.4741065,87.604437 50.8466425,96.9786305 C46.8105315,119.763127 60.93692,119.63293 67.8373675,110.649329 C75.3237025,100.819445 90.9473575,66.2521085 93.3560045,62.606589 C94.0720885,61.369716 95.048567,62.0207015 94.5277785,63.1273775 C77.0813635,97.955109 78.5786305,111.430511 92.705019,108.435977 C99.084678,107.068908 110.086336,96.132349 112.950672,90.468774 C113.536559,89.101704 114.773432,89.2319015 114.513037,89.8177885 C103.446282,118.526255 89.384992,141.766442 79.9457005,149.057481 C71.35269,155.632436 64.9730305,141.375851 95.37406,120.934902 C99.865861,117.875269 97.782707,113.708961 92.705019,115.141129 C77.016265,117.614875 32.0982561,131.87146 12.3733914,145.542159 C10.8761243,146.583736 9.50905455,147.430017 9.5741531,149.57827 C9.63925165,150.815142 11.7875042,150.359452 12.8290813,149.708467 C38.3477182,134.410304 59.244357,128.421236 83.2006285,123.408647 C83.5261215,123.538844 83.916713,123.603943 84.2422055,123.473746 C85.348881,123.213351 85.2837825,123.799238 84.5676985,124.254928 C82.9402345,125.166308 81.31277,126.01259 80.922179,126.142787 C64.777735,132.457347 55.0129505,146.38844 58.4631745,153.484183 C61.3926095,159.603448 77.2115605,157.390097 84.6978955,153.353986 C103.05569,143.393906 116.400896,123.864337 125.514695,96.913532 C133.456719,73.022359 143.481898,45.9413565 145.825447,45.1601737 Z M252.521993,100.298657 C222.641752,96.3927435 158.194174,101.600628 129.746102,109.152062 C121.283289,111.365413 123.626837,115.857214 127.923342,115.010932 C127.988441,115.010932 129.8112,114.555242 129.876299,114.555242 C153.246683,109.998343 209.947532,106.02733 243.017602,112.341891 C246.988615,113.057975 258.901652,101.144938 252.521993,100.298657 Z M154.158063,96.7833345 C162.490679,92.6170265 174.859406,66.8379955 182.996726,52.711607 C183.582614,51.67003 184.62419,52.5163115 184.038304,53.2323955 C163.467158,88.6460145 172.190365,92.747224 180.327686,92.2264355 C191.199145,91.5754495 201.224324,75.9517945 203.437676,72.436472 C204.349055,71.069402 204.869844,72.1760775 204.349055,73.152556 C203.828267,74.78002 201.940408,77.644357 200.182748,81.550271 C197.709002,87.0836485 200.312944,89.2319015 202.461197,90.20838 C205.846323,91.835844 215.090318,90.794267 216.522487,85.130692 C207.278491,84.935396 229.412002,41.3193585 231.690452,38.6503174 C225.506089,35.0698964 215.9366,38.9758102 211.574996,47.5688206 C202.265902,65.991714 194.454074,80.8341865 189.571682,81.094581 C180.067291,81.6153695 200.50824,40.0173872 203.828267,38.715416 C201.810212,35.7859806 188.855597,37.0228533 181.629657,48.2198062 C179.025714,52.255917 163.141664,80.3784965 159.235751,85.0004945 C152.335303,93.2029135 151.814515,86.172269 153.767471,77.96985 C154.418457,75.1706115 155.525133,71.5901905 156.957301,67.619178 C161.5142,57.333605 166.396593,54.078677 169.391127,50.75865 C189.506583,28.4298429 201.029029,10.3324422 196.472129,3.23669879 C192.436018,-3.07786188 178.960615,-0.278623648 170.302506,12.7410891 C154.353359,36.632262 139.641083,69.3768395 137.753225,84.349509 C135.930465,99.3221785 146.801925,100.428854 154.158063,96.7833345 Z M162.620876,52.9720015 C163.336961,51.3445375 163.792651,50.8888475 165.029523,48.1547077 L165.029523,48.1547077 C172.190365,32.4008553 181.173967,15.8007216 187.35833,8.0539925 C191.199145,4.01788155 196.602327,9.4861609 186.837542,24.4588305 C181.108868,33.3122352 174.599012,41.4495556 167.503268,48.6103976 C167.503268,48.6103976 167.503268,48.6103976 167.503268,48.6754962 C165.680509,50.6935515 164.053044,52.3861145 163.336961,53.362593 C162.816172,54.0135785 162.230285,53.8833815 162.620876,52.9720015 L162.620876,52.9720015 Z"/>
</svg>
