<svg xmlns="http://www.w3.org/2000/svg" width="228" height="256" viewBox="0 0 228 256">
  <g fill="none">
    <path fill="#00599C" d="M224.172151,191.63789 C225.953762,188.551791 227.06087,185.074643 227.06087,181.952186 L227.06087,73.5647536 C227.06087,70.4422957 225.955246,66.9658899 224.172893,63.8797913 L113.530435,127.758841 L224.172151,191.63789 Z"/>
    <path fill="#004482" d="M123.362319,253.175096 L217.228986,198.981751 C219.932939,197.420522 222.390539,194.72473 224.172151,191.63789 L113.530435,127.758841 L2.88871884,191.638632 C4.67033043,194.72473 7.12867246,197.421264 9.83188406,198.981751 L103.698551,253.175096 C109.105716,256.297554 117.955154,256.297554 123.362319,253.175096 Z"/>
    <path fill="#659AD2" d="M224.172893,63.8790493 C222.390539,60.7922087 219.932197,58.0964174 217.228986,56.5351884 L123.362319,2.34184348 C117.955154,-0.780614493 109.105716,-0.780614493 103.698551,2.34184348 L9.83188406,56.5351884 C4.42397681,59.6569043 0,67.3205797 0,73.5647536 L0,181.952186 C0,185.074643 1.10636522,188.551791 2.88871884,191.63789 L113.530435,127.758841 L224.172893,63.8790493 Z"/>
    <path fill="#FFF" d="M113.530435,203.445797 C71.7964986,203.445797 37.8434783,169.492777 37.8434783,127.758841 C37.8434783,86.0249043 71.7964986,52.0718841 113.530435,52.0718841 C140.460151,52.0718841 165.575606,66.5637101 179.074597,89.8916174 L146.319212,108.846006 C139.563038,97.1694377 126.998261,89.9153623 113.530435,89.9153623 C92.6630957,89.9153623 75.6869565,106.891501 75.6869565,127.758841 C75.6869565,148.625438 92.6630957,165.602319 113.530435,165.602319 C126.999745,165.602319 139.564522,158.348243 146.321438,146.669449 L179.076823,165.623096 C165.577832,188.953229 140.461635,203.445797 113.530435,203.445797 Z"/>
    <polygon fill="#FFF" points="189.217 123.554 180.807 123.554 180.807 115.144 172.399 115.144 172.399 123.554 163.988 123.554 163.988 131.963 172.399 131.963 172.399 140.373 180.807 140.373 180.807 131.963 189.217 131.963"/>
    <polygon fill="#FFF" points="220.754 123.554 212.343 123.554 212.343 115.144 203.935 115.144 203.935 123.554 195.525 123.554 195.525 131.963 203.935 131.963 203.935 140.373 212.343 140.373 212.343 131.963 220.754 131.963"/>
  </g>
</svg>
