<svg xmlns="http://www.w3.org/2000/svg" width="238" height="256" viewBox="0 0 238 256">
  <path fill="#E0565B" d="M220.791226,206.954501 C218.999754,220.25892 210.047511,231.771867 197.512326,236.888165 C191.371235,239.443758 184.721581,240.212992 178.069372,239.443758 C171.675278,238.67708 165.278627,236.63005 158.628973,232.79666 C149.418616,227.675251 140.208258,219.747801 129.464544,207.979294 C146.349348,187.258543 156.579388,168.326708 160.417889,151.447014 C162.20936,143.514452 162.464919,136.351124 161.698242,129.698915 C160.676004,123.304821 158.373415,117.41929 154.790472,112.302992 C146.860467,100.792599 133.558604,94.14039 118.720829,94.14039 C103.883054,94.14039 90.5811911,101.048159 82.6511852,112.302992 C79.0682434,117.41929 76.7682094,123.304821 75.7434165,129.698915 C74.7211792,136.351124 74.9767385,143.770012 77.0237688,151.447014 C80.8597142,168.326708 91.3478691,187.514103 107.977115,208.232298 C97.48896,220.00336 88.0230423,227.933366 78.8126841,233.049664 C72.1630303,236.888165 65.7663802,238.935195 59.3722859,239.699318 C52.4645172,240.468551 45.8123078,239.443758 39.929332,237.143725 C27.3941469,232.027426 18.4419036,220.511923 16.6504326,207.21006 C15.8837547,200.815966 16.3948733,194.421871 18.9530222,187.258543 C19.7197002,184.697838 21.0000525,182.144801 22.2778491,179.072978 C24.0693201,174.981473 26.1163502,170.629298 28.1608249,166.279678 L28.4189398,165.771115 C46.0678671,127.651885 64.9997023,88.7685331 84.6982154,50.9099741 L85.4648934,49.3715069 C87.5119237,45.5381169 89.5563983,41.4466121 91.6059841,37.6081109 C93.6504589,33.5140505 95.9530481,29.6755494 98.7667562,26.3481669 C104.138614,20.2070762 111.301942,16.8822493 119.231948,16.8822493 C127.161953,16.8822493 134.325281,20.2070762 139.697139,26.3481669 C142.510847,29.6755494 144.813436,33.5140505 146.860467,37.6081109 C148.907497,41.4466121 150.951971,45.5381169 152.999002,49.3715069 L153.768236,50.9099741 C173.208634,89.0240925 192.140469,127.907445 209.791952,166.026674 L209.791952,166.279678 C211.838982,170.373739 213.627898,174.981473 215.674927,179.072978 C216.95528,182.144801 218.233076,184.697838 218.999754,187.258543 C221.046785,193.908197 221.813462,200.307402 220.791226,206.954501 L220.791226,206.954501 Z M118.720829,194.930434 C104.907847,177.537067 95.9530481,161.16338 92.8837806,147.352954 C91.6059841,141.467423 91.3478691,136.351124 92.1171027,131.745946 C92.6282214,127.651885 94.1641331,124.068944 96.2086075,120.99712 C101.069346,114.097018 109.254911,109.739731 118.720829,109.739731 C128.186746,109.739731 136.627872,113.836347 141.23305,120.99712 C143.277525,124.068944 144.813436,127.651885 145.324555,131.745946 C146.091233,136.351124 145.835674,141.722982 144.557877,147.352954 C141.488609,160.910376 132.533811,177.281507 118.720829,194.930434 L118.720829,194.930434 Z M234.093088,181.628571 C232.815291,178.559303 231.53494,175.234477 230.257143,172.420768 C228.210113,167.818145 226.163082,163.46597 224.371612,159.37191 L224.116052,159.118906 C206.467125,120.744117 187.53529,81.8607645 167.581217,43.4936423 L166.814539,41.9551751 C164.767509,38.116674 162.720479,34.0226135 160.676004,29.9311087 C158.115299,25.323374 155.557151,20.4677467 151.465645,15.860012 C143.277525,5.62741644 131.511573,0 118.976389,0 C106.185644,0 94.6752519,5.62741644 86.2315714,15.351449 C82.3956258,19.9540725 79.5819176,24.8148109 77.0237688,29.4225456 C74.9767385,33.5140505 72.9297082,37.6081109 70.8826781,41.4466121 L70.1160001,42.9774125 C50.4200425,81.3496458 31.2326481,120.235553 13.5811652,158.607787 L13.3256058,159.118906 C11.5341349,163.210411 9.48710465,167.557474 7.44007445,172.165209 C6.16227781,174.981473 4.88192557,178.050741 3.60412891,181.375568 C0.27674644,190.83893 -0.745490878,199.793728 0.532305771,209.001531 C3.34856958,228.188925 16.139314,244.307053 33.7907969,251.467825 C40.4404507,254.284089 47.3482194,255.561886 54.5115474,255.561886 C56.5585776,255.561886 59.1167265,255.306326 61.1637567,255.048211 C69.6048814,254.023418 78.3015654,251.214821 86.74269,246.351527 C97.2334006,240.468551 107.210437,232.027426 118.46527,219.747801 C129.720103,232.027426 139.952698,240.468551 150.185294,246.351527 C158.628973,251.214821 167.325658,254.023418 175.766782,255.048211 C177.813813,255.306326 180.371962,255.561886 182.418992,255.561886 C189.58232,255.561886 196.743092,254.284089 203.139743,251.467825 C221.046785,244.307053 233.58197,227.933366 236.395678,209.001531 C238.442708,200.046732 237.417915,191.097044 234.093088,181.628571 L234.093088,181.628571 Z"/>
</svg>
