<svg xmlns="http://www.w3.org/2000/svg" width="256" height="255" viewBox="0 0 256 255">
  <path fill="#EE350F" fill-rule="evenodd" d="M0.907801418,127.092199 C0.907801418,96.5467666 11.6835993,68.5181571 29.6410922,46.6004729 L226.358907,46.6004729 L86.0351237,247.09295 C36.4644259,229.759096 0.907801418,182.577994 0.907801418,127.092199 Z M236.785354,61.343108 C248.404121,80.525793 255.092199,103.027953 255.092199,127.092199 C255.092199,197.283281 198.191082,254.184397 128,254.184397 C119.590758,254.184397 111.372269,253.367683 103.419529,251.809246 L236.785354,61.343108 Z M46.3963672,29.6548463 C68.4742106,11.1450944 96.9355673,0 128,0 C159.064433,0 187.52579,11.1450944 209.603633,29.6548463 L46.3963672,29.6548463 L46.3963672,29.6548463 Z"/>
</svg>
