<svg xmlns="http://www.w3.org/2000/svg" width="256" height="252" viewBox="0 0 256 252">
  <path fill="#DF4F4F" d="M.438600784.438237494L219.300393 232.265872C219.300393 232.265872 226.756606 237.524722 232.458417 231.389397 238.160226 225.254072 233.774219 219.118747 233.774219 219.118747L.438600784.438237494.438600784.438237494zM69.7375247 22.3501121L236.405823 202.027485C236.405823 202.027485 243.862037 207.286334 249.563847 201.151009 255.265657 195.015685 250.87965 188.88036 250.87965 188.88036L69.7375247 22.3501121 69.7375247 22.3501121zM21.0528376 69.2415241L187.721136 248.918896C187.721136 248.918896 195.17735 254.177746 200.87916 248.042422 206.58097 241.907097 202.194962 235.771771 202.194962 235.771771L21.0528376 69.2415241 21.0528376 69.2415241zM128.320766 41.1943244L244.761955 166.724176C244.761955 166.724176 249.971166 170.398221 253.95468 166.111835 257.938195 161.825451 254.873952 157.539065 254.873952 157.539065L128.320766 41.1943244 128.320766 41.1943244zM37.0918028 123.582973L153.532991 249.112825C153.532991 249.112825 158.742203 252.78687 162.725716 248.500484 166.709231 244.214099 163.644989 239.927714 163.644989 239.927714L37.0918028 123.582973 37.0918028 123.582973zM188.159737 68.3650492L240.934804 125.432206C240.934804 125.432206 243.511631 127.153769 245.482147 125.145278 247.452662 123.136787 245.936881 121.128295 245.936881 121.128295L188.159737 68.3650492 188.159737 68.3650492zM66.2287188 181.430322L119.003786 238.497479C119.003786 238.497479 121.580613 240.219043 123.551129 238.210552 125.521643 236.20206 124.005863 234.193569 124.005863 234.193569L66.2287188 181.430322 66.2287188 181.430322z"/>
</svg>
