<svg xmlns="http://www.w3.org/2000/svg" width="210" height="256" viewBox="0 0 210 256">
  <path d="M173.757679,135.745782 C174.116734,174.412919 207.678969,187.280367 208.050793,187.444603 C207.767009,188.352087 202.688108,205.781978 190.368613,223.78581 C179.718952,239.351035 168.666009,254.859242 151.254356,255.18043 C134.145667,255.495673 128.644268,245.034933 109.084192,245.034933 C89.530025,245.034933 83.4177208,254.859216 67.222441,255.495673 C50.4157791,256.131665 37.6176828,238.663944 26.8795188,223.155738 C4.93738111,191.433179 -11.8309521,133.515238 10.684681,94.4196833 C21.8699671,75.004672 41.858919,62.7102766 63.5551391,62.3950095 C80.0588513,62.0801997 95.636394,73.4981565 105.725322,73.4981565 C115.807854,73.4981565 134.737884,59.7670625 154.638325,61.7836472 C162.96933,62.1303916 186.354598,65.1489019 201.37092,87.1289001 C200.160975,87.8789755 173.46751,103.41864 173.757679,135.745819 M141.603874,40.7964065 C150.526644,29.9957491 156.532182,14.9602352 154.893806,0 C142.032304,0.516917007 126.479859,8.57054751 117.25459,19.3652627 C108.986977,28.9244857 101.746407,44.2246319 103.700039,58.8887716 C118.035693,59.9979018 132.680666,51.6039322 141.603874,40.796424"/>
</svg>
