<svg xmlns="http://www.w3.org/2000/svg" width="196" height="256" viewBox="0 0 196 256">
  <defs>
    <linearGradient id="rollup-a" x1="26.824%" x2="67.576%" y1="48.224%" y2="55.339%">
      <stop offset="0%" stop-color="#FF6533"/>
      <stop offset="15.7%" stop-color="#FF5633"/>
      <stop offset="43.4%" stop-color="#FF4333"/>
      <stop offset="71.4%" stop-color="#FF3733"/>
      <stop offset="100%" stop-color="#F33"/>
    </linearGradient>
    <linearGradient id="rollup-b" x1="20.45%" x2="93.486%" y1="38.133%" y2="80.432%">
      <stop offset="0%" stop-color="#BF3338"/>
      <stop offset="100%" stop-color="#F33"/>
    </linearGradient>
    <linearGradient id="rollup-c" x1="32.293%" x2="45.556%" y1="39.497%" y2="48.914%">
      <stop offset="0%" stop-color="#FF6533"/>
      <stop offset="15.7%" stop-color="#FF5633"/>
      <stop offset="43.4%" stop-color="#FF4333"/>
      <stop offset="71.4%" stop-color="#FF3733"/>
      <stop offset="100%" stop-color="#F33"/>
    </linearGradient>
    <linearGradient id="rollup-d" x1="51.564%" x2="48.518%" y1="78.344%" y2="41.663%">
      <stop offset="0%" stop-color="#FF6533"/>
      <stop offset="15.7%" stop-color="#FF5633"/>
      <stop offset="43.4%" stop-color="#FF4333"/>
      <stop offset="71.4%" stop-color="#FF3733"/>
      <stop offset="100%" stop-color="#F33"/>
    </linearGradient>
    <linearGradient id="rollup-e" x1="40.201%" x2="53.975%" y1="47.215%" y2="54.535%">
      <stop offset="0%" stop-color="#FBB040"/>
      <stop offset="100%" stop-color="#FB8840"/>
    </linearGradient>
    <linearGradient id="rollup-f" x1="55.222%" x2="40.926%" y1="5.888%" y2="128.016%">
      <stop offset="0%" stop-color="#FFF"/>
      <stop offset="100%" stop-color="#FFF" stop-opacity="0"/>
    </linearGradient>
  </defs>
  <g fill="none">
    <path fill="url(#rollup-a)" d="M195.629851,84.1611256 C195.629851,69.1195628 191.690394,55.0180976 184.751578,42.7968277 C166.352523,23.8605745 126.331222,19.4734519 116.393046,42.7072947 C106.186271,66.5231025 133.538637,93.024904 145.491308,90.9208759 C160.711937,88.2348827 142.805314,53.3169685 142.805314,53.3169685 C166.083923,97.1881938 160.711937,83.7582267 118.631374,124.048127 C76.5508111,164.338028 33.5749172,249.349718 27.3075993,252.931043 C27.039,253.110109 26.7704006,253.244408 26.4570347,253.378708 L191.511327,253.378708 C194.421154,253.378708 196.301349,250.289816 195.003119,247.693356 L151.848158,162.278766 C150.908061,160.443338 151.579559,158.160243 153.370222,157.130612 C178.618559,142.626248 195.629851,115.408182 195.629851,84.1611256 Z"/>
    <path fill="url(#rollup-b)" d="M195.629851,84.1611256 C195.629851,69.1195628 191.690394,55.0180976 184.751578,42.7968277 C166.352523,23.8605745 126.331222,19.4734519 116.393046,42.7072947 C106.186271,66.5231025 133.538637,93.024904 145.491308,90.9208759 C160.711937,88.2348827 142.805314,53.3169685 142.805314,53.3169685 C166.083923,97.1881938 160.711937,83.7582267 118.631374,124.048127 C76.5508111,164.338028 33.5749172,249.349718 27.3075993,252.931043 C27.039,253.110109 26.7704006,253.244408 26.4570347,253.378708 L191.511327,253.378708 C194.421154,253.378708 196.301349,250.289816 195.003119,247.693356 L151.848158,162.278766 C150.908061,160.443338 151.579559,158.160243 153.370222,157.130612 C178.618559,142.626248 195.629851,115.408182 195.629851,84.1611256 Z"/>
    <path fill="url(#rollup-c)" d="M27.3075993,252.931043 C33.5749172,249.349718 76.5508111,164.293261 118.631374,124.003361 C160.711937,83.7134603 166.083923,97.1434267 142.805314,53.2722019 C142.805314,53.2722019 53.7198675,178.170894 21.487947,239.948741"/>
    <path fill="url(#rollup-d)" d="M39.8422351,141.014652 C100.008487,30.3964917 107.887401,19.2496192 139.22399,19.2496192 C155.698083,19.2496192 172.306475,26.6808675 183.050449,39.8870016 C168.411785,16.2950265 142.491948,0.492432119 112.811722,0.0447665562 L10.6096739,0.0447665562 C8.46087909,0.0447665562 6.71498343,1.79066225 6.71498343,3.93945695 L6.71498343,209.955148 C12.8032351,194.242088 23.1443096,171.769276 39.8422351,141.014652 Z"/>
    <path fill="url(#rollup-e)" d="M118.631374,124.003361 C76.5508111,164.293261 33.5749172,249.349718 27.3075993,252.931043 C21.0402814,256.512368 10.5201407,256.960033 4.92432119,250.692715 C-1.02963079,244.022498 -10.2963079,233.233758 39.8422351,141.014652 C100.008487,30.3964917 107.887401,19.2496192 139.22399,19.2496192 C155.698083,19.2496192 172.306475,26.6808675 183.050449,39.8870016 C183.632414,40.8270993 184.214379,41.8119635 184.796344,42.7968277 C166.397289,23.8605745 126.375988,19.4734519 116.437813,42.7072947 C106.231038,66.5231025 133.583404,93.024904 145.536074,90.9208759 C160.756703,88.2348827 142.850081,53.3169685 142.850081,53.3169685 C166.083923,97.1434267 160.711937,83.7134603 118.631374,124.003361 Z"/>
    <path fill="url(#rollup-f)" d="M44.7665562,145.938973 C104.932807,35.3208129 112.811722,24.1739404 144.148311,24.1739404 C157.712577,24.1739404 171.366377,29.2325612 181.752218,38.3649387 C171.008245,26.0989023 155.07135,19.2496192 139.22399,19.2496192 C107.887401,19.2496192 100.008487,30.3964917 39.8422351,141.014652 C-10.2963079,233.233758 -1.02963079,244.022498 4.92432119,250.692715 C5.77488576,251.632813 6.75974999,252.438611 7.78938078,253.110109 C2.5516937,245.499795 0.223832781,227.817004 44.7665562,145.938973 Z" opacity=".3"/>
  </g>
</svg>
