<svg xmlns="http://www.w3.org/2000/svg" width="256" height="255" viewBox="0 0 256 255">
  <defs>
    <linearGradient id="swift-a" x1="59.383%" x2="40.511%" y1="-3.568%" y2="103.581%">
      <stop offset="0%" stop-color="#FAAE42"/>
      <stop offset="100%" stop-color="#EF3E31"/>
    </linearGradient>
    <linearGradient id="swift-b" x1="59.84%" x2="43.622%" y1="5.748%" y2="94.038%">
      <stop offset="0%" stop-color="#E39F3A"/>
      <stop offset="100%" stop-color="#D33929"/>
    </linearGradient>
  </defs>
  <g fill="none">
    <path fill="url(#swift-a)" d="M56.6785992,0 C58.1727626,0 195.436576,0 197.926848,0 C204.8,0 211.47393,1.09571984 217.948638,3.38677043 C227.312062,6.77354086 235.778988,12.7501946 242.154086,20.5198444 C248.628794,28.2894942 252.912062,37.8521401 254.406226,47.8132296 C255.003891,51.4988327 255.103502,55.1844358 255.103502,58.8700389 C255.103502,62.2568093 255.103502,181.590661 255.103502,186.96965 C255.103502,190.157198 255.103502,193.444358 255.103502,196.631907 C255.103502,201.014786 254.90428,205.497276 254.007782,209.780545 C252.015564,219.642023 247.333852,228.905837 240.560311,236.376654 C233.886381,243.847471 225.120623,249.425681 215.657588,252.414008 C209.880156,254.207004 203.903502,255.003891 197.827237,255.003891 C195.137743,255.003891 56.2801556,255.003891 54.1883268,254.90428 C44.0280156,254.406226 33.9673152,251.119066 25.5003891,245.441245 C17.2326848,239.863035 10.459144,232.093385 6.07626459,223.128405 C2.29105058,215.458366 0.39844358,206.891829 0.39844358,198.325292 C0.39844358,196.333074 0.39844358,58.6708171 0.39844358,56.6785992 C0.19922179,48.2116732 1.9922179,39.844358 5.67782101,32.27393 C9.96108949,23.3089494 16.6350195,15.4396887 24.9027237,9.8614786 C33.3696498,4.08404669 43.3307393,0.697276265 53.4910506,0.19922179 C54.4871595,0 55.5828794,0 56.6785992,0 Z"/>
    <path fill="url(#swift-b)" d="M215.159533,208.585214 C214.263035,207.190661 213.266926,205.796109 212.171206,204.501167 C209.680934,201.51284 206.792218,198.922957 203.604669,196.731518 C199.620233,194.042023 194.938521,192.348638 190.157198,192.149416 C186.770428,191.950195 183.383658,192.54786 180.196109,193.743191 C177.00856,194.838911 173.920623,196.432685 170.932296,198.026459 C167.445914,199.819455 163.959533,201.612451 160.27393,203.106615 C155.891051,204.899611 151.308949,206.294163 146.627237,207.290272 C140.750195,208.385992 134.773541,208.784436 128.896498,208.684825 C118.238132,208.485603 107.579767,206.891829 97.4194553,203.903502 C88.4544747,201.214008 79.8879377,197.528405 71.8194553,192.846693 C64.7470817,188.762646 58.1727626,184.080934 51.9968872,178.801556 C46.9167315,174.418677 42.2350195,169.736965 37.8521401,164.75642 C34.8638132,161.270039 31.9750973,157.584436 29.2856031,153.799222 C28.1898833,152.305058 27.1937743,150.711284 26.2972763,149.11751 C26.2972763,149.11751 26.2972763,149.11751 26.2972763,149.11751 C26.2972763,149.11751 26.2972763,149.11751 26.2972763,149.11751 L0,120.728405 L0,56.4793774 C0,25.3011673 25.2015564,0 56.3797665,0 L106.683268,0 L143.937743,37.8521401 C143.937743,37.8521401 143.937743,37.8521401 143.937743,37.8521401 C228.009339,95.0287938 200.815564,158.08249 200.815564,158.08249 C200.815564,158.08249 224.722179,184.977432 215.159533,208.585214 Z"/>
    <path fill="#FFF" d="M144.136965,37.8521401 C228.20856,95.0287938 201.014786,158.08249 201.014786,158.08249 C201.014786,158.08249 224.921401,185.077043 215.259144,208.684825 C215.259144,208.684825 205.397665,192.149416 188.862257,192.149416 C172.924514,192.149416 163.561089,208.684825 131.486381,208.684825 C60.0653696,208.684825 26.2972763,149.017899 26.2972763,149.017899 C90.6459144,191.352529 134.574319,161.36965 134.574319,161.36965 C105.587549,144.535409 43.9284047,64.0498054 43.9284047,64.0498054 C97.618677,109.771206 120.828016,121.824125 120.828016,121.824125 C106.982101,110.368872 68.1338521,54.3875486 68.1338521,54.3875486 C99.2124514,85.8645914 160.971206,129.792996 160.971206,129.792996 C178.502724,81.1828794 144.136965,37.8521401 144.136965,37.8521401 Z"/>
  </g>
</svg>
