<svg xmlns="http://www.w3.org/2000/svg" width="256" height="59" viewBox="0 0 256 59">
  <g fill="none">
    <polygon fill="#00F" points="37.376 57.214 0 40.961 0 31.961 37.376 15.784 37.376 26.383 11.306 36.35 37.376 46.689"/>
    <path fill="#D40000" d="M45.8872542,56.0005871 L60.1310519,35.6576106 L46.4822955,16.5047167 L59.2384899,16.5047167 L66.2302202,27.3642261 L73.5938592,16.5047167 L85.8665838,16.5047167 L72.478154,35.2113349 L87.0938605,56.0005871 L74.263278,56.0005871 L66.2302202,43.765046 L58.1227848,56.0005871 L45.8872542,56.0005871 Z M92.5236099,16.5047167 L102.155843,16.5047167 L102.155843,21.8972826 C105.60211,17.7072397 109.70541,15.6121547 114.465761,15.6121547 C116.99466,15.6121547 119.188866,16.1328608 121.04841,17.1741461 C122.90788,18.2155055 124.432666,19.7898843 125.622791,21.8972826 C127.358281,19.7898843 129.23018,18.2155055 131.23849,17.1741461 C133.246704,16.1328608 135.391339,15.6121547 137.672373,15.6121547 C140.573149,15.6121547 143.027692,16.2010393 145.036012,17.3786817 C147.044216,18.5564086 148.544217,20.2857521 149.536005,22.5667015 C150.254953,24.2526836 150.614527,26.9799511 150.614527,30.748525 L150.614527,56.0005871 L140.16411,56.0005871 L140.16411,33.4262109 C140.164057,29.508882 139.804557,26.9799511 139.085599,25.8394288 C138.118606,24.3518572 136.631003,23.6080608 134.622789,23.6080291 C133.159929,23.6080608 131.783897,24.0543365 130.494683,24.9468668 C129.205384,25.8394605 128.275639,27.1473137 127.705425,28.8704264 C127.135148,30.5935921 126.850015,33.3146605 126.850058,37.0336423 L126.850058,56.0005871 L116.39964,56.0005871 L116.39964,34.3559564 C116.399619,30.513005 116.21367,28.0336767 115.841793,26.9179398 C115.469863,25.8022664 114.893419,24.9716945 114.11246,24.426203 C113.331438,23.8807855 112.271524,23.6080608 110.932707,23.6080291 C109.321113,23.6080608 107.870704,24.0419385 106.581469,24.9096833 C105.292192,25.777481 104.368635,27.0295431 103.810798,28.6658803 C103.25294,30.3022704 102.974006,33.0171398 102.974027,36.8105098 L102.974027,56.0005871 L92.5236099,56.0005871 L92.5236099,16.5047167 Z M160.990556,56.0005871 L160.990556,1.4799286 L171.440973,1.4799286 L171.440973,56.0005871 L160.990556,56.0005871 Z"/>
    <polygon fill="#00F" points="193.013 56.38 206.513 0 214.36 0 200.711 56.38"/>
    <polygon fill="#00F" points="217.771 57.214 217.771 46.689 243.878 36.424 217.771 26.271 217.771 15.821 255.184 31.999 255.184 40.924"/>
  </g>
</svg>
