<svg xmlns="http://www.w3.org/2000/svg" width="218" height="256" viewBox="0 0 218 256">
  <g fill="none">
    <path fill="#FFF" d="M66.669728,0.729771286 C65.4753249,0.741530437 64.2355205,1.02967608 63.1059863,1.65578168 C59.5189925,3.64408742 58.2034109,8.25365052 60.1901977,11.8379067 L68.2896102,26.4631355 C48.7762358,38.5368966 35.8456779,59.1592489 35.8456779,82.6961988 C35.8456779,82.7950018 35.8454039,82.9434219 35.8456779,83.0895989 C35.8457744,83.1411813 35.8451965,83.1705819 35.8456779,83.2284404 C35.8457079,83.3053611 35.8456779,83.4176881 35.8456779,83.4367137 L35.8456779,87.069878 C32.097977,82.7578786 26.5889031,80.0349614 20.4336533,80.0349614 C9.1569533,80.0349614 0,89.1919181 0,100.468621 L0,163.412625 C0,174.689328 9.1569533,183.846285 20.4336533,183.846285 C26.5889031,183.846285 32.097977,181.123368 35.8456779,176.811369 L35.8456779,185.628159 C35.8456779,197.515142 45.5725558,207.24202 57.4595388,207.24202 L62.9439978,207.24202 L62.9439978,235.242852 C62.9439978,246.519606 72.1009584,255.676512 83.3776569,255.676512 C94.6543594,255.676512 103.811317,246.519606 103.811317,235.242852 L103.811317,207.24202 L113.299205,207.24202 L113.299205,235.242852 C113.299205,246.519606 122.456162,255.676512 133.732865,255.676512 C145.00956,255.676512 154.166532,246.519606 154.166532,235.242852 L154.166532,207.24202 L159.650987,207.24202 C171.53797,207.24202 181.264848,197.515142 181.264848,185.628159 L181.264848,176.811369 C185.01256,181.123368 190.521623,183.846285 196.676877,183.846285 C207.953579,183.846285 217.110537,174.689328 217.110537,163.412625 L217.110537,100.468621 C217.110537,89.1919181 207.953579,80.0349614 196.676877,80.0349614 C190.521623,80.0349614 185.01256,82.7578786 181.264848,87.069878 L181.264848,83.5061381 L181.264848,83.4367283 C181.265322,83.3253438 181.264972,83.2145658 181.264848,83.2284624 C181.266309,83.0066433 181.264848,82.8298967 181.264848,82.6962134 C181.264848,59.1633843 168.305454,38.560927 148.797772,26.4862891 L156.920333,11.8378848 C158.907119,8.25362859 157.59154,3.6440655 154.004544,1.65575976 C152.875005,1.02965416 151.635208,0.74152313 150.440804,0.729771286 C147.791929,0.704757857 145.192006,2.10075692 143.822419,4.57154844 L135.329604,19.9141604 C127.025256,16.8496521 117.989692,15.1702126 108.555265,15.1702126 C99.1304513,15.1702126 90.0782888,16.8324604 81.7809174,19.891014 L73.2881026,4.57154844 C71.9185246,2.10074962 69.3185965,0.704816307 66.669728,0.729771286 L66.669728,0.729771286 Z"/>
    <path fill="#A4C639" d="M20.4341348 85.3574285C12.0189874 85.3574285 5.322945 92.0534725 5.322945 100.468621L5.322945 163.412625C5.322945 171.827774 12.0189874 178.523818 20.4341348 178.523818 28.8492814 178.523818 35.5453242 171.827774 35.5453242 163.412625L35.5453242 100.468621C35.5453242 92.0534725 28.8492814 85.3574285 20.4341348 85.3574285L20.4341348 85.3574285zM196.677359 85.3574285C188.262209 85.3574285 181.566166 92.0534725 181.566166 100.468621L181.566166 163.412625C181.566166 171.827774 188.262209 178.523818 196.677359 178.523818 205.092508 178.523818 211.788544 171.827774 211.788544 163.412625L211.788544 100.468621C211.788544 92.0534725 205.092508 85.3574285 196.677359 85.3574285L196.677359 85.3574285zM83.3776569 157.187466C74.962508 157.187466 68.2664689 163.883509 68.2664689 172.298658L68.2664689 235.242706C68.2664689 243.657877 74.962508 250.353803 83.3776569 250.353803 91.7928058 250.353803 98.488849 243.657877 98.488849 235.242706L98.488849 172.298658C98.488849 163.883509 91.7928058 157.187466 83.3776569 157.187466L83.3776569 157.187466zM133.732865 157.187466C125.317716 157.187466 118.621672 163.883509 118.621672 172.298658L118.621672 235.242706C118.621672 243.657877 125.317716 250.353803 133.732865 250.353803 142.148014 250.353803 148.84405 243.657877 148.84405 235.242706L148.84405 172.298658C148.84405 163.883509 142.148014 157.187466 133.732865 157.187466L133.732865 157.187466z"/>
    <path fill="#A4C639" d="M66.7160104,6.05250249 C66.3587917,6.05626053 66.0259294,6.14842213 65.6977986,6.33029772 C64.6202561,6.9275946 64.265911,8.16582155 64.8647159,9.24609369 L75.5096545,28.4764141 C55.0292783,39.1329222 41.1958742,59.3845604 41.168149,82.6267744 L175.94238,82.6267744 C175.914689,59.3845604 162.081251,39.1329222 141.600868,28.4764141 L152.245817,9.24609369 C152.844619,8.16582155 152.490271,6.9275946 151.412731,6.33029772 C151.084598,6.14842213 150.751738,6.05601212 150.394519,6.05250249 C149.629805,6.04522803 148.904948,6.42731801 148.496935,7.16338333 L137.713144,26.601977 C128.891575,22.689018 118.996821,20.4927093 108.555265,20.4927093 C98.1137001,20.4927093 88.2189387,22.689018 79.3973776,26.601977 L68.6135866,7.16338333 C68.2055761,6.42731801 67.4807134,6.04527187 66.7160104,6.05250249 L66.7160104,6.05250249 Z M41.168149,87.9492423 L41.168149,185.628159 C41.168149,194.653588 48.4341091,201.919544 57.4595388,201.919544 L159.650987,201.919544 C168.676423,201.919544 175.94238,194.653588 175.94238,185.628159 L175.94238,87.9492423 L41.168149,87.9492423 L41.168149,87.9492423 Z"/>
    <path fill="#FFF" d="M77.4533334,46.7116611 C74.3766894,46.7116611 71.8300256,49.2583212 71.8300256,52.3349726 C71.8300256,55.4116167 74.3766894,57.9582767 77.4533334,57.9582767 C80.5299775,57.9582767 83.0766376,55.4116167 83.0766376,52.3349726 C83.0766376,49.2583212 80.5299775,46.7116611 77.4533334,46.7116611 L77.4533334,46.7116611 Z M139.656823,46.7116611 C136.580178,46.7116611 134.033512,49.2583212 134.033512,52.3349726 C134.033512,55.4116167 136.580178,57.9582767 139.656823,57.9582767 C142.73346,57.9582767 145.280127,55.4116167 145.280127,52.3349726 C145.280127,49.2583212 142.73346,46.7116611 139.656823,46.7116611 L139.656823,46.7116611 Z"/>
  </g>
</svg>
