<svg xmlns="http://www.w3.org/2000/svg" width="212" height="256" viewBox="0 0 212 256">
  <g fill="none">
    <polyline fill="#9D5025" points="0 202.539 13.479 209.278 15.69 205.352 15.69 48.998 13.479 46.112 0 52.852 0 202.539"/>
    <polyline fill="#F68536" points="39.373 52.497 13.479 46.112 13.479 209.278 39.373 203.248 39.373 52.497"/>
    <polyline fill="#6B3A19" points="118.828 64.912 137.272 55.335 198.637 79.1 182.321 81.228 118.828 64.912"/>
    <polyline fill="#FBBF93" points="119.537 190.479 137.627 200.056 198.991 176.291 182.675 174.162 119.537 190.479"/>
    <polyline fill="#9D5025" points="124.148 164.23 156.427 168.487 158.28 165.161 158.28 90.839 156.427 86.904 124.148 91.16 124.148 164.23"/>
    <polyline fill="#9D5025" points="29.441 37.954 49.305 28.022 51.475 32.206 51.475 222.968 49.305 227.368 29.441 217.436 29.441 37.954"/>
    <polyline fill="#F68536" points="89.741 213.89 49.305 227.013 49.305 28.022 89.741 41.147 89.741 213.89"/>
    <polyline fill="#9D5025" points="74.134 239.429 105.703 255.391 109.006 251.596 109.006 4.68 105.703 0 74.134 15.962 74.134 239.429"/>
    <polyline fill="#9D5025" points="181.611 81.228 197.928 79.1 199.329 81.135 199.329 174.245 197.928 176.645 181.611 174.517 181.611 81.228"/>
    <polyline fill="#F68536" points="156.427 86.904 156.427 168.841 190.124 127.695 156.427 86.904"/>
    <path fill="#F68536" d="M197.927639,46.1122065 L105.703226,0 L105.703226,255.390555 L211.406452,202.538942 L211.406452,52.8516129 L197.927639,46.1122065 L197.927639,46.1122065 Z M197.927639,176.768826 L137.272155,194.883716 L137.272155,60.5068387 L197.927639,78.621729 L197.927639,176.768826 L197.927639,176.768826 Z"/>
  </g>
</svg>
