<svg xmlns="http://www.w3.org/2000/svg" width="187" height="256" viewBox="0 0 187 256">
  <g fill="none" fill-rule="evenodd">
    <path fill="#FFC24A" fill-rule="nonzero" d="M0,206.402823 L1.54803963,204.235195 L74.7777918,65.2850532 L74.9324567,63.8141136 L42.6512089,3.1786135 C39.9466681,-1.90070284 32.3328026,-0.616475548 31.4452227,5.06942339 L0,206.402823 Z"/>
    <g transform="translate(.73 .73)">
      <path fill="#FFA712" d="M0.184330481,204.020798 L1.35537437,201.737378 L73.8178385,64.2431304 L41.6173778,3.36096879 C38.9411746,-1.66512741 32.1452304,-0.383872804 31.2669504,5.24245031 L0.184330481,204.020798 Z"/>
      <path fill="#000" fill-rule="nonzero" d="M0.184330481,204.020798 L1.35537437,201.737378 L73.8178385,64.2431304 L41.6173778,3.36096879 C38.9411746,-1.66512741 32.1452304,-0.383872804 31.2669504,5.24245031 L0.184330481,204.020798 Z"/>
    </g>
    <path fill="#F4BD62" fill-rule="nonzero" d="M98.465167,109.679374 L122.500886,85.0630827 L98.4582003,39.1653097 C96.1758516,34.8207665 89.8033537,34.808226 87.5451573,39.1653096 L74.7002275,63.6631046 L74.7002275,65.7495115 L98.465167,109.679374 Z"/>
    <g transform="translate(74.393 36.467)">
      <path fill="#FFA50E" d="M23.6432432,72.1863366 L47.0104411,48.2547149 L23.6432439,3.75954409 C21.424376,-0.464161477 16.0338496,-0.906694965 13.8384614,3.32920218 L0.925356125,28.2065538 L0.539294268,29.4783251 L23.6432432,72.1863366 Z"/>
      <path fill="#000" fill-rule="nonzero" d="M23.6432432,72.1863366 L47.0104411,48.2547149 L23.6432439,3.75954409 C21.424376,-0.464161477 16.0338496,-0.906694965 13.8384614,3.32920218 L0.925356125,28.2065538 L0.539294268,29.4783251 L23.6432432,72.1863366 Z"/>
    </g>
    <polygon fill="#F6820C" fill-rule="nonzero" points="0 206.403 .702 205.697 3.251 204.661 96.956 111.305 98.143 108.073 74.767 63.529"/>
    <path fill="#FDE068" fill-rule="nonzero" d="M101.467147,253.484685 L186.271665,206.188429 L162.054344,57.0415679 C161.296812,52.3751551 155.571899,50.5303265 152.231978,53.8762844 L0.000185783334,206.403009 L84.3184166,253.480505 C89.647147,256.455825 96.1370235,256.457219 101.467147,253.484685"/>
    <path fill="#FCCA3F" fill-rule="nonzero" d="M185.511811,205.79179 L161.478336,57.7771847 C160.726555,53.1461972 155.965843,51.2298705 152.651278,54.5504274 L0.940455837,206.113393 L84.3325447,252.724847 C89.6208213,255.677579 96.0614298,255.678962 101.35109,252.728995 L185.511811,205.79179 Z"/>
    <path fill="#EEAB37" fill-rule="nonzero" d="M101.4671,252.09131 C96.1369768,255.063844 89.6471004,255.06245 84.3183699,252.08713 L0.679273522,205.685826 L0.0001393375,206.403009 L84.3183699,253.480505 C89.6471004,256.455825 96.1369768,256.457219 101.4671,253.484685 L186.271619,206.188429 L186.064006,204.910704 L101.4671,252.09131 Z"/>
  </g>
</svg>
