<svg xmlns="http://www.w3.org/2000/svg" width="256" height="237" viewBox="0 0 256 237">
  <g fill="none">
    <polygon fill="#E24329" points="128.075 236.075 128.075 236.075 175.179 91.104 80.971 91.104"/>
    <polygon fill="#FC6D26" points="128.075 236.074 80.971 91.104 14.956 91.104"/>
    <path fill="#FCA326" d="M14.9558857,91.1044267 L14.9558857,91.1044267 L0.641828571,135.159589 C-0.663771429,139.17757 0.766171429,143.57955 4.18438095,146.06275 L128.074971,236.074789 L14.9558857,91.1044267 L14.9558857,91.1044267 Z"/>
    <path fill="#E24329" d="M14.9558857,91.1045486 L80.9709714,91.1045486 L52.6000762,3.79026286 C51.1408762,-0.703146667 44.7847619,-0.701927619 43.3255619,3.79026286 L14.9558857,91.1045486 L14.9558857,91.1045486 Z"/>
    <polygon fill="#FC6D26" points="128.075 236.074 175.179 91.104 241.194 91.104"/>
    <path fill="#FCA326" d="M241.193935,91.1044267 L241.193935,91.1044267 L255.507992,135.159589 C256.813592,139.17757 255.38365,143.57955 251.96544,146.06275 L128.07485,236.074789 L241.193935,91.1044267 L241.193935,91.1044267 Z"/>
    <path fill="#E24329" d="M241.193935,91.1045486 L175.17885,91.1045486 L203.549745,3.79026286 C205.008945,-0.703146667 211.365059,-0.701927619 212.824259,3.79026286 L241.193935,91.1045486 L241.193935,91.1045486 Z"/>
  </g>
</svg>
