<svg xmlns="http://www.w3.org/2000/svg" width="232" height="256" viewBox="0 0 232 256">
  <g fill="none">
    <path fill="#99425B" d="M216.697825,125.702746 C216.697825,112.578366 206.05868,101.939221 192.933719,101.939221 C192.089831,101.939221 191.25697,101.984491 190.436297,102.070389 L223.07574,5.80385103 L84.3686983,5.80385103 L116.962871,101.986812 C116.484629,101.957793 116.004065,101.939221 115.518858,101.939221 C102.394479,101.939221 91.7547529,112.578366 91.7547529,125.702746 C91.7547529,136.311711 98.7072552,145.29268 108.302859,148.348438 C103.234885,157.127431 96.8575493,165.034096 89.6171733,171.865297 C79.7720022,181.153293 68.5042932,188.195756 56.317245,192.535919 C41.8080526,185.081959 34.9559576,168.505415 41.138862,153.970684 C41.8364918,152.329339 42.5497923,150.665939 43.2305908,149.009503 C53.7426309,146.556191 61.5750062,137.132965 61.5750062,125.873381 C61.5750062,112.749001 50.9358605,102.109855 37.8109005,102.109855 C24.6865209,102.109855 14.0467948,112.749001 14.0467948,125.873381 C14.0467948,133.921662 18.0514921,141.030289 24.1722946,145.329244 C18.2906132,158.721184 9.6445298,172.736464 6.95093562,188.980445 C3.72280139,208.447917 6.94048858,229.112154 23.7776288,240.782075 C62.9899992,267.959459 105.554708,223.933907 150.433435,212.867013 C166.698309,208.855931 184.551713,209.502487 198.881565,201.202897 C209.642593,194.970079 216.736711,184.641442 218.750087,173.045232 C220.739086,161.589476 217.839454,150.183634 211.170763,140.935105 C214.620025,136.810267 216.697825,131.500271 216.697825,125.702746"/>
    <path fill="#FFF" d="M213.03196,172.052067 C211.283822,182.119528 205.066094,190.913611 195.97253,196.180658 C187.495921,201.090185 177.337919,202.555672 166.583276,204.106476 C160.821736,204.937016 154.864022,205.796575 149.043862,207.231881 C133.654798,211.026477 118.749198,218.430524 104.33461,225.590226 C75.4874405,239.918917 50.5747413,252.29169 27.0839997,236.011725 C9.87715048,224.085853 10.6717056,202.021132 12.6763758,189.929848 C14.5342071,178.727723 19.55691,168.411275 24.4142015,158.433775 C25.2534467,156.708853 26.0758607,155.015853 26.8762198,153.337362 C29.2836812,154.29907 31.8443659,154.955492 34.5135837,155.253813 C29.5692336,171.571503 37.3447305,189.314053 53.6653228,197.69838 L55.8986671,198.845814 L58.2643404,198.003666 C71.1664303,193.408711 83.0551576,186.035425 93.6002795,176.086364 C100.416391,169.655633 106.277178,162.541202 111.093842,154.939241 C112.537855,155.156888 114.01495,155.271225 115.518743,155.271225 C130.497471,155.271225 142.901585,144.073163 144.820939,129.610402 C150.952187,129.38579 157.464754,129.384049 163.631408,129.60808 C165.5496,144.072002 177.954294,155.271225 192.933603,155.271225 C199.196601,155.271225 205.006314,153.308343 209.792218,149.973997 C213.114956,156.775598 214.355252,164.428633 213.03196,172.052067 Z M37.8107844,107.913648 C47.7145748,107.913648 55.770981,115.970635 55.770981,125.873845 C55.770981,129.431061 54.7274382,132.747995 52.9351911,135.541416 C49.9490799,140.197312 44.8758829,143.388882 39.0446955,143.78703 C38.6366807,143.814888 38.225764,143.834041 37.8107844,143.834041 C35.6041382,143.834041 33.4897741,143.43125 31.5350175,142.700538 C27.5808143,141.220541 24.2859352,138.383591 22.2133592,134.760791 C20.7130487,132.138004 19.8505878,129.105461 19.8505878,125.873845 C19.8505878,115.970635 27.9075744,107.913648 37.8107844,107.913648 Z M97.5585461,125.70321 C97.5585461,116.705409 104.209826,109.234038 112.853007,107.942088 C113.723013,107.8115 114.613333,107.743013 115.518743,107.743013 C121.276221,107.743013 126.402233,110.47085 129.690147,114.697258 C130.507337,115.747184 131.215995,116.886492 131.78652,118.102991 C132.870109,120.412947 133.478939,122.987561 133.478939,125.70321 C133.478939,127.139097 133.304822,128.534937 132.985026,129.873899 C131.234567,137.201334 124.986659,142.801527 117.330723,143.572286 C116.735242,143.632066 116.130475,143.663407 115.518743,143.663407 C111.933087,143.663407 108.592358,142.603032 105.785007,140.785248 C100.840076,137.582071 97.5585461,132.020184 97.5585461,125.70321 Z M172.517773,104.346566 C168.670362,108.027985 165.809034,112.731473 164.384175,118.020575 C157.733476,117.771007 150.681145,117.771007 144.068752,118.020575 C142.549869,112.383238 139.399506,107.409869 135.162073,103.632104 L153.74619,66.0535346 L172.517773,104.346566 Z M92.4638747,11.6082244 L214.979172,11.6082244 L186.042622,96.952386 C184.788397,97.2536085 183.564933,97.6326034 182.377453,98.088211 L153.792041,39.7751755 L125.125953,97.7399759 C123.886819,97.3133886 122.609959,96.9697977 121.302918,96.7092023 L92.4638747,11.6082244 Z M210.8938,125.70321 C210.8938,127.504163 210.624498,129.242434 210.129425,130.883779 C208.95007,134.78865 206.475284,138.134603 203.207103,140.422504 C200.293541,142.461997 196.751995,143.663407 192.933603,143.663407 C184.640978,143.663407 177.645526,138.01214 175.589201,130.359106 C175.189892,128.873306 174.973407,127.313214 174.973407,125.70321 C174.973407,123.248156 175.469641,120.907439 176.365184,118.774504 C176.826595,117.675243 177.402343,116.636344 178.063408,115.660126 C181.295605,110.889893 186.750118,107.743013 192.933603,107.743013 C193.500645,107.743013 194.060142,107.772613 194.613835,107.824268 C203.732356,108.67396 210.8938,116.366462 210.8938,125.70321 Z M222.501618,125.70321 C222.501618,111.267727 212.101013,99.2234552 198.402046,96.6500021 L231.171497,0.000406273635 L76.2738702,0.000406273635 L109.093235,96.8467548 C95.8696083,99.7893364 85.9507278,111.606096 85.9507278,125.70321 C85.9507278,136.288379 91.545116,145.586822 99.9288628,150.811501 C95.8963064,156.819707 91.1138854,162.473296 85.6344147,167.643417 C76.9430609,175.8426 67.2609798,182.060328 56.8226494,186.151504 C46.3088681,179.547236 41.8642345,167.092627 46.4800834,156.242219 L46.8416669,155.391946 C47.0680194,154.860889 47.2943718,154.32867 47.5201439,153.796452 C59.0681818,149.768538 67.3787992,138.777095 67.3787992,125.873845 C67.3787992,109.569503 54.1145453,96.3058304 37.8107844,96.3058304 C21.5070235,96.3058304 8.24276969,109.569503 8.24276969,125.873845 C8.24276969,134.103207 11.6252879,141.555427 17.0693546,146.921141 C16.0826901,149.023897 15.0437903,151.162638 13.9776122,153.352453 C9.00017982,163.576038 3.35878022,175.163543 1.22526325,188.030809 C-3.01217076,213.585421 3.82309294,234.013439 20.4716061,245.552191 C30.5744706,252.554027 40.8334603,255.306821 51.1580341,255.306821 C70.5988079,255.306821 90.264193,245.540003 109.498348,235.986188 C123.350537,229.106234 137.674585,221.991222 151.823355,218.501912 C157.0875,217.203577 162.504869,216.422371 168.240292,215.595315 C179.613052,213.954549 191.373513,212.258647 201.790368,206.225484 C213.865401,199.231193 222.131328,187.499171 224.468562,174.038164 C226.474975,162.482001 224.060548,150.907265 218.171321,141.091694 C220.91657,136.605853 222.501618,131.336484 222.501618,125.70321 Z"/>
  </g>
</svg>
