<svg xmlns="http://www.w3.org/2000/svg" width="256" height="100" viewBox="0 0 256 100">
  <g fill="none">
    <polygon fill="#CB3837" points="0 0 0 85.498 71.166 85.498 71.166 99.83 128 99.83 128 85.498 256 85.498 256 0"/>
    <polygon fill="#FFF" points="42.502 14.332 14.332 14.332 14.332 28.664 14.332 71.166 42.502 71.166 42.502 28.664 56.834 28.664 56.834 71.166 71.166 71.166 71.166 28.664 71.166 14.332"/>
    <path fill="#FFF" d="M85.4980695,14.3320463 L85.4980695,68.2007722 L85.4980695,71.1660232 L85.4980695,85.4980695 L114.162162,85.4980695 L114.162162,71.1660232 L142.332046,71.1660232 L142.332046,14.3320463 L85.4980695,14.3320463 L85.4980695,14.3320463 Z M128,56.8339768 L114.162162,56.8339768 L114.162162,28.6640927 L128,28.6640927 L128,56.8339768 L128,56.8339768 Z"/>
    <polygon fill="#FFF" points="184.834 14.332 156.664 14.332 156.664 28.664 156.664 71.166 184.834 71.166 184.834 28.664 199.166 28.664 199.166 71.166 213.498 71.166 213.498 28.664 227.83 28.664 227.83 71.166 242.162 71.166 242.162 28.664 242.162 15.32 242.162 14.332"/>
  </g>
</svg>
