<svg xmlns="http://www.w3.org/2000/svg" width="256" height="34" viewBox="0 0 256 34">
  <path fill="#EA1B22" d="M110.517112,21.6514292 L127.433069,21.6514292 L118.488514,7.26097825 L102.072172,33.2795447 L94.600809,33.2795447 L114.568553,2.02569998 C115.436736,0.762913375 116.883634,0 118.488514,0 C120.040581,0 121.487504,0.73661893 122.329392,1.97308613 L142.376045,33.2795447 L134.904661,33.2795447 L131.379358,27.465489 L114.252795,27.465489 L110.517112,21.6514292 L110.517112,21.6514292 Z M188.125589,27.465489 L188.125589,0.315695611 L181.785379,0.315695611 L181.785379,30.1226011 C181.785379,30.9381491 182.101128,31.7273777 182.706163,32.3324537 C183.311155,32.9375505 184.126745,33.2795447 185.021231,33.2795447 L213.933717,33.2795447 L217.669409,27.465489 L188.125589,27.465489 L188.125589,27.465489 Z M83.2357795,22.5985202 C89.3919335,22.5985202 94.3904455,17.6263279 94.3904455,11.4702572 C94.3904455,5.31420735 89.3919335,0.315695611 83.2357795,0.315695611 L55.499215,0.315695611 L55.499215,33.2795447 L61.8369125,33.2795447 L61.8369125,6.1297554 L82.8148355,6.1297554 C85.761436,6.1297554 88.1291055,8.5237607 88.1291055,11.4702572 C88.1291055,14.4167496 85.761436,16.8107799 82.8148355,16.8107799 L64.941288,16.7844605 L83.8670875,33.2795447 L93.075024,33.2795447 L80.3419845,22.5985202 L83.2357795,22.5985202 L83.2357795,22.5985202 Z M16.4847105,33.2795447 C7.3846899,33.2795447 4.61852778e-14,25.9133221 4.61852778e-14,16.8107799 C4.61852778e-14,7.7082168 7.3846899,0.315695611 16.4847105,0.315695611 L35.6446465,0.315695611 C44.7471887,0.315695611 52.126623,7.7082168 52.126623,16.8107799 C52.126623,25.9133221 44.7471887,33.2795447 35.6446465,33.2795447 L16.4847105,33.2795447 L16.4847105,33.2795447 Z M35.2184468,27.465489 C41.1141654,27.465489 45.8890558,22.7037438 45.8890558,16.8107798 C45.8890558,10.917791 41.1141654,6.1297554 35.2184468,6.1297554 L16.9081763,6.1297554 C11.0151915,6.1297554 6.23756305,10.917791 6.23756305,16.8107798 C6.23756305,22.7037438 11.0151915,27.465489 16.9081763,27.465489 L35.2184468,27.465489 L35.2184468,27.465489 Z M155.608904,33.2795447 C146.506341,33.2795447 139.113895,25.9133221 139.113895,16.8107799 C139.113895,7.7082168 146.506341,0.315695611 155.608904,0.315695611 L178.36527,0.315695611 L174.655877,6.1297554 L156.029848,6.1297554 C150.136838,6.1297554 145.348911,10.9177909 145.348911,16.8107799 C145.348911,22.7037438 150.136838,27.465489 156.029848,27.465489 L178.891367,27.465489 L175.155717,33.2795447 L155.608904,33.2795447 L155.608904,33.2795447 Z M233.138481,27.465489 C228.27145,27.465489 224.141112,24.2032969 222.87828,19.7046376 L249.975539,19.7046376 L253.71123,13.8905819 L222.87828,13.8905819 C224.141112,9.41823785 228.27145,6.1297554 233.138481,6.1297554 L251.738211,6.1297554 L255.500202,0.315695611 L232.717537,0.315695611 C223.614974,0.315695611 216.222528,7.7082168 216.222528,16.8107799 C216.222528,25.9133221 223.614974,33.2795447 232.717537,33.2795447 L252.26435,33.2795447 L256,27.465489 L233.138481,27.465489 L233.138481,27.465489 Z"/>
</svg>
