<svg xmlns="http://www.w3.org/2000/svg" width="256" height="114" viewBox="0 0 256 114">
  <defs>
    <linearGradient id="sqlite-a" x1="57.662%" x2="57.662%" y1="2.046%" y2="94.439%">
      <stop offset="0%" stop-color="#97D9F6"/>
      <stop offset="92.024%" stop-color="#0F80CC"/>
      <stop offset="100%" stop-color="#0F80CC"/>
    </linearGradient>
  </defs>
  <g fill="none">
    <path fill="#003B57" d="M97.2596685,56.022103 C93.849282,56.022103 91.076243,57.0316055 88.950276,59.0497275 C86.8243095,61.069617 85.7458565,63.717226 85.7458565,66.961333 C85.7458565,68.642574 86.0137015,70.1754765 86.5414365,71.5801175 C87.0691715,72.987587 87.8903865,74.2914545 88.994475,75.4696205 C90.0985635,76.648847 92.3085085,78.2507065 95.60221,80.2873 C99.643757,82.754567 102.288619,84.756954 103.558011,86.320442 C104.828287,87.8826075 105.458563,89.519735 105.458563,91.2265195 C105.458563,93.511779 104.706298,95.335956 103.160221,96.7071825 C101.611491,98.079031 99.5403315,98.762431 96.9723755,98.762431 C94.2638675,98.762431 91.9045305,97.80765 89.878453,95.911602 C87.8523755,94.0128175 86.8296135,91.5013515 86.80663,88.353591 L85.5469615,88.353591 L85.5469615,99.7790055 L86.80663,99.7790055 C87.19116,98.6971015 87.723315,98.1436465 88.4198895,98.1436465 C88.754917,98.1436465 89.5398895,98.374718 90.762431,98.80663 C93.7370165,99.865013 96.1794475,100.37569 98.0994475,100.37569 C101.408177,100.37569 104.232486,99.2168875 106.585635,96.8618785 C108.935248,94.507937 110.121547,91.6685085 110.121547,88.353591 C110.121547,85.78316 109.338342,83.4962175 107.801105,81.5027695 C106.263867,79.506924 103.274254,77.1854145 98.80663,74.519344 C94.96221,72.2095875 92.4667405,70.328405 91.314917,68.8618855 C90.161326,67.3974805 89.569061,65.777602 89.569061,64.000007 C89.569061,62.0773515 90.275359,60.533042 91.6685085,59.381219 C93.0616575,58.228512 94.887072,57.657462 97.1712705,57.657462 C99.7418785,57.657462 101.884641,58.420335 103.58011,59.9558045 C105.273812,61.493926 106.253259,63.6253735 106.541436,66.364648 L107.801105,66.364648 L107.801105,56.464092 L106.629834,56.464092 C106.48663,56.9688435 106.354033,57.291495 106.232044,57.4364675 C106.113591,57.580556 105.885525,57.657462 105.546961,57.657462 C105.139447,57.657462 104.412817,57.4859705 103.381215,57.149175 C101.17127,56.4048655 99.1337015,56.022103 97.2596685,56.022103 L97.2596685,56.022103 Z M138.430939,56.022103 C134.275359,56.022103 130.502542,57.0015505 127.093922,58.9613295 C123.68,60.9175725 120.977679,63.6340365 118.983425,67.0939295 C116.990055,70.5535505 116,74.227886 116,78.1436535 C116,83.4043755 117.721989,88.0911345 121.19337,92.198895 C124.666519,96.3041805 128.828287,98.8622355 133.657458,99.845304 C134.761547,100.420596 136.341215,101.905679 138.40884,104.309393 C140.739005,107.022052 142.710276,108.978564 144.331491,110.143646 C145.950939,111.309344 147.699447,112.163713 149.546962,112.729282 C151.396243,113.292467 153.395801,113.569061 155.558011,113.569061 C158.176354,113.569061 160.520663,113.113989 162.585635,112.176795 L162.121547,111.027625 C160.922873,111.459981 159.644641,111.668509 158.298342,111.668509 C156.47116,111.668509 154.62453,111.065989 152.773481,109.856353 C150.925083,108.643712 148.61348,106.330081 145.856354,102.917127 C144.560442,101.281768 143.665856,100.249989 143.160221,99.845304 C148.443757,98.813525 152.788508,96.2528175 156.176795,92.154696 C159.564199,88.0583425 161.259668,83.383259 161.259668,78.1436535 C161.259668,71.922295 159.046188,66.6937495 154.651933,62.430943 C150.254143,58.167694 144.845967,56.022103 138.430939,56.022103 L138.430939,56.022103 Z M164.132596,56.022103 L164.198859,57.3701695 C166.96571,57.3701695 168.515324,58.185197 168.861843,59.823208 C168.990904,60.4092855 169.05013,61.491451 169.060738,63.0497275 L169.038674,92.8618785 C169.01569,95.088442 168.698342,96.510055 168.088398,97.127072 C167.477569,97.7396685 166.445083,98.123315 164.950276,98.276243 L164.884013,99.6243095 L192.464124,99.6243095 L193.171306,92.8618785 L191.911637,92.8618785 C191.551858,94.7040885 190.727107,96.0237825 189.4144,96.7734805 C188.098157,97.5286595 185.770643,97.9005525 182.408875,97.9005525 L179.80114,97.9005525 C176.776168,97.9005525 175.025891,96.80698 174.563571,94.607735 C174.468101,94.172641 174.435394,93.706162 174.430974,93.19337 L174.541472,63.0497275 C174.540764,60.8266995 174.821693,59.33702 175.40335,58.6077385 C175.991195,57.8811085 177.051085,57.4744785 178.58567,57.3701695 L178.519407,56.022103 L164.132596,56.022103 L164.132596,56.022103 Z M138.872928,57.657462 C143.559779,57.657462 147.386519,59.503385 150.342541,63.226523 C153.297679,66.950994 154.762431,72.0556055 154.762431,78.519344 C154.762431,84.644328 153.276464,89.5486445 150.298342,93.237569 C147.320221,96.925348 143.356464,98.762431 138.430939,98.762431 C133.699005,98.762431 129.861657,96.8680665 126.917127,93.0607735 C123.975248,89.2534805 122.519337,84.310453 122.519337,78.2320515 C122.519337,71.9858635 123.992928,66.9858155 126.961326,63.2486225 C129.927956,59.515407 133.900553,57.657462 138.872928,57.657462 L138.872928,57.657462 Z M202.298342,64.0663055 C201.625635,64.0663055 201.112928,64.2934875 200.729282,64.7513885 C200.336795,65.207514 200.216574,65.76 200.353591,66.4309465 C200.486188,67.0818155 200.853038,67.65225 201.436464,68.132604 C202.016353,68.612505 202.64221,68.8618855 203.314917,68.8618855 C203.965525,68.8618855 204.461436,68.612519 204.817679,68.132604 C205.173923,67.65225 205.282652,67.0818155 205.149171,66.4309465 C205.012155,65.76 204.657679,65.207514 204.110497,64.7513885 C203.557127,64.2934875 202.94895,64.0663055 202.298342,64.0663055 L202.298342,64.0663055 Z M220.486188,68.640891 C219.343204,73.037967 216.865415,75.4174585 213.060774,75.801112 L213.104973,77.0607805 L217.546961,77.0607805 L217.458563,91.955801 C217.465635,94.5023645 217.543425,96.1978345 217.723757,97.0607735 C218.161326,99.126722 219.510276,100.176795 221.767956,100.176795 C225.034254,100.176795 228.460552,98.187138 232.044199,94.209945 L230.961326,93.281768 C228.373922,95.9009095 226.086188,97.2154695 224.088398,97.2154695 C222.860553,97.2154695 222.099447,96.509348 221.812154,95.116022 C221.733481,94.7776355 221.701657,94.3822355 221.701657,93.922652 L221.745856,77.0607805 L228.530386,77.0607805 L228.464124,75.049731 L221.767991,75.049731 L221.767991,68.640891 L220.486223,68.640891 L220.486188,68.640891 Z M246.718232,74.2541505 C242.923315,74.2541505 239.836464,76.0963605 237.436464,79.756913 C235.04884,83.4236535 234.309834,87.48614 235.248619,91.955801 C235.801105,94.573875 236.901657,96.602965 238.585635,98.033149 C240.266962,99.462718 242.4,100.176795 244.950276,100.176795 C247.324641,100.176795 250.630718,99.5756055 252.0221,98.364641 C253.417016,97.154383 254.702321,95.19372 255.889503,92.5082875 L254.939227,91.513812 C253.045746,94.997569 249.22431,96.751381 246.342542,96.751381 C242.380552,96.751381 239.954033,94.5776795 239.049724,90.2541505 C238.932154,89.7022725 238.844641,89.1093925 238.78453,88.486188 C243.4979,87.7399335 247.070055,86.4184715 249.480663,84.5082875 C251.889503,82.5970495 254.308066,80.5711415 253.856354,78.4309465 C253.587625,77.159164 252.927293,76.159208 251.911602,75.403322 C250.882652,74.6477895 248.211271,74.2541505 246.718232,74.2541505 L246.718232,74.2541505 Z M205.237569,74.408847 L197.060773,76.2873 L197.060773,77.7458635 L199.889503,77.3922725 C201.259668,77.3922725 202.065856,78.01274 202.320442,79.248626 C202.406188,79.6622425 202.46011,80.243101 202.475138,80.972383 L202.38674,94.3425415 C202.363757,96.192707 202.158674,97.2682395 201.745856,97.59116 C201.329503,97.914696 200.231602,98.077348 198.453038,98.077348 L198.40884,99.3370165 L211.381215,99.3370165 L211.359151,98.077348 C209.55672,98.077348 208.388101,97.9351195 207.867438,97.6574585 C207.355615,97.3815725 207.002908,96.879473 206.850864,96.110497 C206.733295,95.556328 206.682024,94.601462 206.674068,93.281768 L206.718267,74.408847 L205.237604,74.408847 L205.237569,74.408847 Z M244.640884,76.883985 C245.430276,76.883985 246.193149,77.1888655 246.961326,77.7900625 C247.718895,78.3891375 248.180331,79.0552965 248.331491,79.7790125 C249.071381,83.3335795 245.92,85.791024 238.828729,87.160221 C238.626298,84.568313 239.075359,82.2154325 240.220994,80.088405 C241.35779,77.963407 242.838453,76.883985 244.640884,76.883985 L244.640884,76.883985 Z"/>
    <path fill="#0F80CC" d="M78.943823,4.97589746 L8.57493925,4.97589746 C3.85874033,4.97589746 7.10542736e-15,8.83534495 7.10542736e-15,13.551367 L7.10542736e-15,91.15508 C7.10542736e-15,95.870833 3.85874033,99.7296655 8.57493925,99.7296655 L54.921724,99.7296655 C54.395675,76.6690085 62.270585,31.9154224 78.943823,4.97589746 L78.943823,4.97589746 Z"/>
    <path fill="url(#sqlite-a)" d="M76.387359,7.4775549 L8.57493925,7.4775549 C5.22616575,7.4775549 2.50103867,10.2019748 2.50103867,13.551367 L2.50103867,85.4931165 C17.8590939,79.598752 40.9096734,74.5127675 56.8477065,74.7437545 C60.0504855,57.9970395 69.463422,25.1770455 76.387359,7.4775549 L76.387359,7.4775549 Z"/>
    <path fill="#003B57" d="M95.357525,2.43622895 C90.5380775,-1.8616716 84.702939,-0.135262762 78.943823,4.97589746 C78.0890165,5.7352345 77.235978,6.5776654 76.387359,7.4775549 C66.5354255,17.9288257 57.390674,37.2879417 54.549569,52.072472 C55.6563095,54.316892 56.52084,57.1809805 57.0901215,59.3688255 C57.235978,59.9301515 57.3676905,60.4570025 57.472884,60.905179 C57.7230495,61.9658645 57.8574145,62.6536875 57.8574145,62.6536875 C57.8574145,62.6536875 57.7690165,62.3194555 57.4065855,61.268494 C57.3376355,61.066947 57.2607295,60.8468365 57.1696795,60.587831 C57.1307845,60.48087 57.076862,60.350925 57.0176355,60.2121405 C56.3749835,58.718218 54.597304,55.5650685 53.8149835,54.192251 C53.145812,56.1661735 52.554431,58.0128035 52.0594035,59.683522 C54.317967,63.8159415 55.6943205,70.897842 55.6943205,70.897842 C55.6943205,70.897842 55.5749835,70.438881 55.0074695,68.837028 C54.503602,67.420273 51.993989,63.0231905 51.399514,61.9952125 C50.3825855,65.7492935 49.9785194,68.2838345 50.342895,68.900936 C51.0503425,70.0966965 51.7241105,72.159901 52.315757,74.441625 C53.6523315,79.5818645 54.5813925,85.839459 54.5813925,85.839459 C54.5813925,85.839459 54.6114475,86.2541295 54.6618345,86.8922765 C54.476199,91.2089175 54.58758,95.6844055 54.921724,99.7296655 C55.3645965,105.084626 56.198188,109.684763 57.2607295,112.146726 L57.982055,111.753448 C56.4218345,106.902969 55.788022,100.546284 56.065591,93.2154555 C56.4854805,82.0100665 59.064044,68.4968735 63.828685,54.4123615 C71.878188,33.1509251 83.0463645,16.0919196 93.267801,7.94517925 C83.951558,16.3588809 71.342497,43.593356 67.5679115,53.67866 C63.3416135,64.9723615 60.346696,75.5704645 58.5416135,85.72445 C61.6558675,76.2051605 71.7252595,72.113312 71.7252595,72.113312 C71.7252595,72.113312 76.664044,66.0224425 82.435536,57.320649 C78.9782985,58.109157 73.3013925,59.4589915 71.399956,60.2581075 C68.595094,61.434682 67.839293,61.836008 67.839293,61.836008 C67.839293,61.836008 76.9248175,56.3031905 84.719735,53.797997 C95.439735,36.914019 107.118851,12.9281627 95.357525,2.43622895"/>
  </g>
</svg>
