<svg xmlns="http://www.w3.org/2000/svg" width="255" height="256" viewBox="0 0 255 256">
  <g fill="none">
    <circle cx="127.502" cy="128.326" r="127.502" fill="#1A171B"/>
    <path fill="#FFF" d="M182.990792,47.9368083 C170.05621,48.3879691 158.765423,55.5163086 150.362063,65.3790745 C141.056384,76.1912395 134.865673,89.0159737 130.405067,102.107481 C122.425407,95.5676121 116.270005,87.1014829 103.46881,83.4098112 C93.5746586,80.5694601 83.1822693,81.742478 73.6255081,88.8629713 C69.0982082,92.2447153 65.9793145,97.3565624 64.4963688,102.162405 C60.6556178,114.649749 68.5332765,125.763996 72.1111772,129.753826 L79.933912,138.137569 C81.5463212,139.781364 85.4302267,144.069352 83.5314285,150.216907 C81.4796279,156.901933 73.4215049,161.229153 65.1554557,158.679114 C61.463784,157.553173 56.1597031,154.803055 57.3484136,150.930918 C57.8388057,149.345971 58.9725921,148.161183 59.5806784,146.792009 C60.1377638,145.615068 60.4045371,144.732362 60.573232,144.214508 C62.0836396,139.283125 60.0200697,132.868796 54.7395275,131.240695 C49.8120678,129.730287 44.770837,130.926844 42.8171148,137.270556 C40.6005426,144.477358 44.0489799,157.557097 62.5230309,163.253491 C84.1669765,169.903208 102.476256,158.118105 105.073372,142.747256 C106.709321,133.119877 102.362485,125.968 94.3985173,116.768243 L87.9096491,109.592826 C83.978666,105.665766 82.629107,98.9728948 86.6973998,93.8296625 C90.1301445,89.4906733 95.018373,87.6389526 103.025495,89.8162936 C114.712519,92.9901112 119.922445,101.099235 128.616116,107.639104 C125.026446,119.412437 122.680411,131.228925 120.557993,141.825318 L119.263359,149.726516 C113.04911,182.319936 108.306038,200.217286 95.9795414,210.491981 C93.4961959,212.257393 89.9457571,214.901587 84.5945985,215.085974 C81.7895557,215.172283 80.8833111,213.2421 80.8440797,212.402549 C80.7773864,210.433134 82.4368733,209.530812 83.5392747,208.644184 C85.1869921,207.745785 87.678184,206.254993 87.5094892,201.480536 C87.3290248,195.839066 82.656569,190.946914 75.9009274,191.170532 C70.8400809,191.343151 63.127194,196.105839 63.4175062,204.823048 C63.7195877,213.826648 72.1111772,220.574443 84.7632934,220.14682 C91.5267812,219.915356 106.630858,217.161314 121.515239,199.467966 C138.839811,179.185349 143.684885,155.932918 147.329479,138.914351 L151.397771,116.446546 C153.657498,116.717242 156.07415,116.897706 158.702653,116.960477 C180.279905,117.41556 191.072454,106.238544 191.233303,98.1098048 C191.339227,93.1901912 188.004561,88.3490404 183.336029,88.4588883 C179.993515,88.5530435 175.79576,90.777462 174.787513,95.3989172 C173.802806,99.9340636 181.653003,104.025895 175.517217,108.000033 C171.158612,110.820768 163.343724,112.809799 152.339325,111.193466 L154.340124,100.134143 C158.42411,79.161054 163.461417,53.3625065 182.571017,52.7348047 C183.96373,52.6641882 189.059885,52.7975749 189.177579,56.1675493 C189.212887,57.2934896 188.934344,57.5798786 187.61617,60.1573794 C186.274457,62.1660255 185.768373,63.8765132 185.831143,65.8420047 C186.015531,71.1970864 190.087747,74.7161401 195.976375,74.5042907 C203.86188,74.2492868 206.129453,66.5717081 205.99999,62.6289556 C205.682216,53.3664297 195.917528,47.5131096 182.990792,47.9368083 L182.990792,47.9368083 Z"/>
  </g>
</svg>
