<svg xmlns="http://www.w3.org/2000/svg" width="250" height="256" viewBox="0 0 250 256">
  <path fill="#222C37" d="M162.430857,127.743864 L207.117742,50.5793189 L228.711733,127.743864 L207.117742,204.890761 L162.430857,127.743864 L162.430857,127.743864 Z M140.650024,140.274876 L185.344174,217.428002 L107.505953,197.486544 L51.27314,140.274876 L140.650024,140.274876 L140.650024,140.274876 Z M185.333794,38.0379265 L140.650024,115.202471 L51.27314,115.202471 L107.505953,57.9876882 L185.333794,38.0379265 L185.333794,38.0379265 Z M249.128604,101.483961 L221.865971,0.0587456071 L120.108589,27.2404127 L105.045839,53.7234902 L74.4802174,53.5044674 L0,127.75113 L74.4802174,201.980145 L74.4833314,201.980145 L105.035459,201.753857 L120.120008,228.236934 L221.865971,255.414449 L249.128604,154.007918 L233.646493,127.743864 L249.128604,101.483961 L249.128604,101.483961 Z"/>
</svg>
