<svg xmlns="http://www.w3.org/2000/svg" width="240" height="256" viewBox="0 0 240 256">
  <defs>
    <linearGradient id="yii-a" x1="50%" x2="50%" y1="0%" y2="100%">
      <stop offset="0%" stop-color="#73B723"/>
      <stop offset="100%" stop-color="#D8EE61"/>
    </linearGradient>
    <linearGradient id="yii-b" x1="84.858%" x2="13.584%" y1="26.251%" y2="100%">
      <stop offset="0%" stop-color="#98C9EA"/>
      <stop offset="68.865%" stop-color="#026FB2"/>
      <stop offset="100%" stop-color="#086EB6"/>
    </linearGradient>
    <linearGradient id="yii-c" x1="0%" x2="85.884%" y1="6.32%" y2="69.935%">
      <stop offset="0%" stop-color="#D73721"/>
      <stop offset="100%" stop-color="#F7D768"/>
    </linearGradient>
    <linearGradient id="yii-d" x1="30.961%" x2="86.77%" y1="30.993%" y2="81.746%">
      <stop offset="0%" stop-color="#D4C883"/>
      <stop offset="100%" stop-color="#A1D1A7"/>
    </linearGradient>
  </defs>
  <g fill="none">
    <path fill="url(#yii-a)" d="M207.256171,0.00385680999 C224.634956,8.85909254 239.560811,32.0963727 238.81259,63.6296512 C236.540929,102.483155 208.370788,135.967979 177.720719,166.818602 C176.004439,129.195421 167.824145,105.217633 155.05039,71.5014003 C142.990145,37.5229044 178.249102,1.09147723 207.256171,0.00385680999 Z"/>
    <path fill="url(#yii-b)" d="M113.25414,165.495716 C122.585602,153.887954 129.199327,143.550806 133.815147,134.211119 C165.432821,150.742208 157.97196,147.655042 173.220775,165.268052 C173.272248,165.815741 173.320788,166.362179 173.366381,166.907309 C174.631415,191.32863 156.816809,247.784614 86.6691492,255.521375 C81.8134255,217.585792 97.5993488,185.227157 113.25414,165.495716 Z"/>
    <path fill="url(#yii-c)" d="M0.36531222,23.5882499 C50.3457129,3.81052826 104.136641,24.0703511 135.191675,66.2831364 C138.195705,70.3658478 141.044803,74.6073805 143.731809,78.9731361 C148.584409,109.949717 144.884259,127.153437 135.439199,136.272884 C129.228878,133.139668 122.602859,130.360828 115.529658,127.791542 C99.0842207,121.817343 83.9076733,117.864114 62.2324012,111.446381 C10.7632719,97.399879 -1.92948972,53.2664027 0.36531222,23.5882499 Z"/>
    <path fill="url(#yii-d)" d="M141.821532,75.9405886 C142.149361,76.4496875 142.473333,76.9549296 142.793448,77.4678854 L143.186843,78.1004022 C143.989059,79.3885767 144.775848,80.6844649 145.551068,81.9957803 L145.682198,82.2156184 L145.890467,82.570445 L146.079451,82.8982738 L146.63483,83.8509059 L146.673399,83.9203285 L147.425477,85.2393575 L147.448618,85.2779256 C147.992428,86.2382713 148.528525,87.2024738 149.056907,88.1743899 L149.122473,88.2978078 L149.708708,89.3854282 L149.724136,89.4124259 L150.368223,90.6234643 L150.55335,90.9782907 L150.912034,91.6686598 L151.35171,92.5210148 L151.775959,93.3463721 C152.207922,94.2025838 152.636027,95.0587954 153.05642,95.9150071 L153.16441,96.127132 C153.924202,97.6814267 154.660853,99.2395782 155.382076,100.809299 L155.929743,102.008768 L155.983738,102.128329 L156.334708,102.907404 L156.74353,103.829182 L156.974939,104.361422 L157.345192,105.213776 L157.611313,105.827009 L158.170549,107.146038 L158.209117,107.238602 L158.806923,108.673335 L158.880203,108.846891 C159.516577,110.397329 160.133666,111.947767 160.731471,113.509775 L160.789324,113.652476 L161.282995,114.959936 L161.31385,115.033215 L161.599253,115.804577 C161.915513,116.660788 162.227914,117.517 162.536458,118.377069 L162.65602,118.712612 C162.995419,119.672957 163.330962,120.63716 163.654933,121.597505 L163.759068,121.902193 C164.063755,122.804686 164.356872,123.70718 164.649991,124.609674 L164.792693,125.053207 L164.827403,125.15734 L165.29022,126.619072 L165.309504,126.684637 L165.737611,128.080803 L166.165717,129.519393 L166.177287,129.550247 L166.532114,130.765143 L166.643961,131.158537 L166.859942,131.910615 C167.102922,132.778397 167.342044,133.642323 167.573453,134.510105 L167.747008,135.158049 L168.082552,136.43851 L168.097979,136.500219 C168.506801,138.073797 168.892481,139.647376 169.258878,141.217098 L169.293589,141.379083 L169.332158,141.544926 C169.810402,143.616034 170.250078,145.679426 170.655043,147.735106 L170.693611,147.939518 C171.318415,151.136813 171.854512,154.314824 172.298045,157.465838 L172.305758,157.508263 C172.444604,158.480179 172.571878,159.448239 172.691439,160.416298 L172.741578,160.832833 L172.903564,162.217428 L172.903564,162.221285 L173.042409,163.501746 L173.08869,163.925995 L173.188968,164.940336 L173.227536,165.349157 L173.242963,165.515001 L173.366381,166.907309 C162.324334,152.687251 149.134044,142.887096 133.305695,135.219758 C146.079451,109.965366 144.286033,91.9694909 141.821532,75.9405886"/>
  </g>
</svg>
